<svg width="160" height="160" viewBox="0 0 160 160" fill="none" xmlns="http://www.w3.org/2000/svg">
<g filter="url(#filter0_d_480_58)">
<path d="M80 145C115.899 145 145 115.899 145 80C145 44.1015 115.899 15 80 15C44.1015 15 15 44.1015 15 80C15 115.899 44.1015 145 80 145Z" fill="#094B97"/>
<path d="M54.0135 49.3898L56.4927 46.9106C58.0715 45.3319 60.6311 45.3319 62.2098 46.9106L72.663 57.3638C74.2417 58.9425 74.2417 61.5021 72.663 63.0809L65.4171 70.3268C64.2088 71.5351 63.9093 73.3809 64.6734 74.9092C69.091 83.7443 76.2549 90.9083 85.09 95.3258C86.6184 96.09 88.4642 95.7905 89.6725 94.5822L96.9184 87.3363C98.4971 85.7575 101.057 85.7575 102.635 87.3363L113.089 97.7895C114.667 99.3682 114.667 101.928 113.089 103.507L110.609 105.986C102.074 114.521 88.5616 115.481 78.9051 108.239L74.02 104.575C66.9717 99.2888 60.7105 93.0276 55.4242 85.9793L51.7604 81.0942C44.518 71.4376 45.4783 57.9251 54.0135 49.3898Z" fill="white"/>
</g>
<defs>
<filter id="filter0_d_480_58" x="0" y="0" width="160" height="160" filterUnits="userSpaceOnUse" color-interpolation-filters="sRGB">
<feFlood flood-opacity="0" result="BackgroundImageFix"/>
<feColorMatrix in="SourceAlpha" type="matrix" values="0 0 0 0 0 0 0 0 0 0 0 0 0 0 0 0 0 0 127 0" result="hardAlpha"/>
<feOffset/>
<feGaussianBlur stdDeviation="7.5"/>
<feComposite in2="hardAlpha" operator="out"/>
<feColorMatrix type="matrix" values="0 0 0 0 0 0 0 0 0 0 0 0 0 0 0 0 0 0 0.25 0"/>
<feBlend mode="normal" in2="BackgroundImageFix" result="effect1_dropShadow_480_58"/>
<feBlend mode="normal" in="SourceGraphic" in2="effect1_dropShadow_480_58" result="shape"/>
</filter>
</defs>
</svg>
