<svg width="160" height="160" viewBox="0 0 160 160" fill="none" xmlns="http://www.w3.org/2000/svg">
<g filter="url(#filter0_d_267_374)">
<path d="M80 145C115.899 145 145 115.899 145 80C145 44.1015 115.899 15 80 15C44.1015 15 15 44.1015 15 80C15 115.899 44.1015 145 80 145Z" fill="#25D366"/>
<path fill-rule="evenodd" clip-rule="evenodd" d="M82.1425 116.162H82.1265C75.6577 116.16 69.3015 114.537 63.6561 111.457L43.1666 116.832L48.65 96.8035C45.2676 90.9418 43.4878 84.2927 43.4907 77.4806C43.4992 56.17 60.838 38.832 82.1421 38.832C92.4817 38.8365 102.186 42.8617 109.483 50.1675C116.781 57.473 120.797 67.1838 120.793 77.5111C120.785 98.8169 103.453 116.153 82.1425 116.162ZM64.6056 104.46L65.7787 105.156C70.711 108.083 76.365 109.632 82.1296 109.634H82.1426C99.849 109.634 114.26 95.2223 114.267 77.5085C114.271 68.9246 110.932 60.8534 104.867 54.781C98.8018 48.7087 90.7359 45.3629 82.1552 45.36C64.4351 45.36 50.0237 59.7701 50.0166 77.4825C50.0141 83.5527 51.7126 89.4643 54.9283 94.5791L55.6922 95.7945L52.4468 107.649L64.6056 104.46ZM100.292 85.8333C100.965 86.1588 101.42 86.3786 101.615 86.7029C101.856 87.1055 101.856 89.0392 101.052 91.2954C100.246 93.5513 96.3882 95.6102 94.5325 95.8873C92.8688 96.1361 90.7632 96.2399 88.4498 95.5046C87.0471 95.0596 85.2483 94.4654 82.9442 93.4703C73.8904 89.5609 67.7719 80.7858 66.6155 79.1274C66.5345 79.0112 66.4778 78.9299 66.4462 78.8877L66.4384 78.8773C65.9273 78.1954 62.5028 73.6262 62.5028 68.8973C62.5028 64.4488 64.688 62.1171 65.6938 61.0438C65.7627 60.9702 65.8261 60.9026 65.8829 60.8406C66.7681 59.8738 67.8144 59.632 68.4582 59.632C69.102 59.632 69.7465 59.638 70.3092 59.6662C70.3786 59.6697 70.4508 59.6693 70.5255 59.6689C71.0883 59.6656 71.7899 59.6615 72.4821 61.3241C72.7484 61.9639 73.138 62.9125 73.549 63.913C74.38 65.9361 75.2981 68.1715 75.4597 68.4949C75.7012 68.9784 75.8621 69.5421 75.5402 70.187C75.4919 70.2836 75.4472 70.3749 75.4045 70.462C75.1627 70.9557 74.9848 71.3188 74.5745 71.7979C74.4131 71.9863 74.2463 72.1894 74.0796 72.3925C73.7473 72.7972 73.4151 73.2017 73.1258 73.4899C72.6423 73.9715 72.139 74.494 72.7024 75.4609C73.2657 76.4278 75.2039 79.5902 78.075 82.1511C81.1612 84.9039 83.8435 86.0674 85.2031 86.6571C85.4686 86.7723 85.6837 86.8656 85.8414 86.9445C86.8068 87.4281 87.3702 87.3472 87.9336 86.7029C88.497 86.0583 90.3478 83.8827 90.9915 82.916C91.6353 81.9495 92.2793 82.1105 93.1644 82.4327C94.0498 82.7553 98.7979 85.0914 99.7637 85.5747C99.9522 85.6691 100.128 85.7543 100.292 85.8333Z" fill="#FDFDFD"/>
</g>
<defs>
<filter id="filter0_d_267_374" x="0" y="0" width="160" height="160" filterUnits="userSpaceOnUse" color-interpolation-filters="sRGB">
<feFlood flood-opacity="0" result="BackgroundImageFix"/>
<feColorMatrix in="SourceAlpha" type="matrix" values="0 0 0 0 0 0 0 0 0 0 0 0 0 0 0 0 0 0 127 0" result="hardAlpha"/>
<feOffset/>
<feGaussianBlur stdDeviation="7.5"/>
<feComposite in2="hardAlpha" operator="out"/>
<feColorMatrix type="matrix" values="0 0 0 0 0 0 0 0 0 0 0 0 0 0 0 0 0 0 0.25 0"/>
<feBlend mode="normal" in2="BackgroundImageFix" result="effect1_dropShadow_267_374"/>
<feBlend mode="normal" in="SourceGraphic" in2="effect1_dropShadow_267_374" result="shape"/>
</filter>
</defs>
</svg>
