<svg width="111" height="112" viewBox="0 0 111 112" fill="none" xmlns="http://www.w3.org/2000/svg">
<path d="M55.2133 111.213C85.7067 111.213 110.427 86.4935 110.427 56C110.427 25.5066 85.7067 0.786743 55.2133 0.786743C24.7198 0.786743 0 25.5066 0 56C0 86.4935 24.7198 111.213 55.2133 111.213Z" fill="url(#paint0_linear_199_43)"/>
<path d="M45.0909 81.3061C43.3022 81.3061 43.6061 80.6307 42.9892 78.9275L37.7291 61.6161L78.2189 37.5956" fill="#C8DAEA"/>
<path d="M45.0907 81.306C46.471 81.306 47.0809 80.6748 47.8514 79.9257L55.2131 72.7673L46.0302 67.2299" fill="#A9C9DD"/>
<path d="M46.0296 67.2312L68.2805 83.6705C70.8197 85.0715 72.6522 84.3461 73.2847 81.3131L82.342 38.6319C83.2693 34.9141 80.9248 33.2279 78.4957 34.3307L25.3116 54.8383C21.6812 56.2944 21.7024 58.3198 24.6498 59.2222L38.2981 63.4821L69.8953 43.5478C71.3869 42.6432 72.7559 43.1295 71.6323 44.1268" fill="url(#paint1_linear_199_43)"/>
<defs>
<linearGradient id="paint0_linear_199_43" x1="41.4155" y1="5.39153" x2="13.8088" y2="69.8033" gradientUnits="userSpaceOnUse">
<stop stop-color="#37AEE2"/>
<stop offset="1" stop-color="#1E96C8"/>
</linearGradient>
<linearGradient id="paint1_linear_199_43" x1="48.3016" y1="59.3915" x2="54.2011" y2="78.4744" gradientUnits="userSpaceOnUse">
<stop stop-color="#EFF7FC"/>
<stop offset="1" stop-color="white"/>
</linearGradient>
</defs>
</svg>
