<svg width="112" height="112" viewBox="0 0 112 112" fill="none" xmlns="http://www.w3.org/2000/svg">
<path d="M55.929 0.78672C86.4224 0.78672 111.142 25.5065 111.142 56C111.142 86.4934 86.4224 111.213 55.929 111.213C25.4355 111.213 0.715698 86.4934 0.715698 56C0.715698 25.5065 25.4355 0.78672 55.929 0.78672Z" fill="#7F4DA0"/>
<path d="M70.6389 49.0025C70.3704 46.8209 69.6999 45.1078 68.509 43.5905C66.9627 41.6367 64.9866 40.4667 62.0611 39.7727C60.1545 39.3101 59.3842 39.3632 58.6946 39.9931C58.0523 40.5832 57.9269 41.7663 58.4178 42.5324C58.7629 43.0884 59.1612 43.2876 60.2687 43.505C61.7436 43.7764 62.7629 44.1285 63.6901 44.6587C65.6581 45.795 66.5745 47.5732 66.6727 50.452C66.7186 51.8037 66.8353 52.2192 67.3074 52.6986C68.1824 53.575 69.7397 53.4045 70.4003 52.3558C70.6427 51.9606 70.6796 51.7885 70.7052 50.8707C70.7221 50.3025 70.6977 49.4567 70.6389 49.0025Z" fill="white"/>
<path d="M78.347 51.4626C77.9583 44.7787 75.344 39.4011 70.6651 35.6176C68.029 33.4916 64.8425 32.0297 61.3497 31.3188C60.0702 31.0645 57.7145 30.8584 57.3104 30.9763C56.929 31.0855 56.3896 31.4984 56.1492 31.8718C55.895 32.2768 55.8377 33.1809 56.0545 33.7039C56.4046 34.5782 57.0558 34.887 58.8795 35.0466C61.6911 35.2926 64.5909 36.2803 66.782 37.7427C69.2835 39.4076 71.2719 41.6849 72.5583 44.361C73.6698 46.6603 74.3534 49.9738 74.3344 52.941C74.3281 54.0141 74.4938 54.6202 74.9254 55.0633C75.5768 55.7446 76.5264 55.8936 77.3644 55.441C78.2932 54.9526 78.5105 54.0952 78.347 51.4626Z" fill="white"/>
<path d="M86.8764 77.2027C86.7457 76.8207 86.4407 76.2314 86.2227 75.893C84.8496 73.8196 77.4724 68.0463 73.7892 66.1581C71.6861 65.0778 70.1278 64.7177 68.9728 65.0559C67.7305 65.4053 67.0766 65.9835 64.9953 68.5701C64.1563 69.6069 63.2954 70.5782 63.0666 70.7309C62.4999 71.1238 61.3884 71.4404 60.6039 71.4404C58.784 71.4294 55.4823 70.2508 52.9432 68.701C50.9709 67.5007 48.4429 65.3507 46.5031 63.2225C44.2147 60.7233 42.6566 58.5188 41.4251 56.0305C39.8342 52.8329 39.431 50.8793 40.0956 49.4496C40.2591 49.0895 40.4771 48.7076 40.5751 48.5874C40.6732 48.4784 41.6976 47.638 42.8307 46.7212C45.0538 44.9533 45.4134 44.5495 45.8275 43.3381C46.3505 41.7992 46.2089 40.2277 45.4025 38.6453C44.7813 37.4448 43.1577 34.8256 41.9809 33.134C40.4226 30.9077 36.5433 26.1494 35.7695 25.5054C34.3747 24.3705 32.5877 24.1739 30.6152 24.938C28.534 25.7456 24.6328 28.8887 22.9655 31.0823C21.4617 33.0685 20.8844 34.4763 20.7971 36.3316C20.7209 37.8594 20.8516 38.4924 21.658 40.446C27.9674 55.7685 37.3822 68.0026 50.3171 77.7157C57.0732 82.7904 64.0799 86.6538 71.3482 89.295C75.5871 90.8337 77.4288 90.91 79.5972 89.6442C80.5125 89.0984 82.7792 86.7739 84.0432 85.0823C86.1355 82.2665 86.9092 80.9679 87.1271 79.9311C87.2796 79.2217 87.1598 77.9886 86.8764 77.2027Z" fill="white"/>
<path d="M86.1937 52.9976C86.0541 49.2168 85.4176 46.1156 84.0902 42.658C82.7797 39.2569 81.4535 37.0375 78.9487 34.0357C76.5806 31.2212 74.7412 29.6141 71.824 27.8253C67.7541 25.3329 62.801 23.6835 57.2502 22.9898C55.3573 22.7474 54.929 22.7647 54.3483 23.1522C53.2229 23.8863 53.2379 25.7172 54.3668 26.4403C54.7405 26.6703 55.0722 26.7541 56.5863 26.9523C58.9108 27.2652 60.4054 27.5602 62.1789 28.0441C69.1336 29.9452 74.4817 33.8312 78.0572 39.5997C81.0493 44.4078 82.2913 49.2163 82.115 55.3576C82.0537 57.4337 82.0982 57.7991 82.4156 58.2979C83.0234 59.2277 84.6261 59.4116 85.4484 58.6401C85.96 58.1699 86.0565 57.8169 86.1572 56.0399C86.2055 55.113 86.2159 53.7446 86.1937 52.9976Z" fill="white"/>
</svg>
