<svg width="112" height="112" viewBox="0 0 112 112" fill="none" xmlns="http://www.w3.org/2000/svg">
<path d="M56.0711 111.213C86.5645 111.213 111.284 86.4935 111.284 56C111.284 25.5066 86.5645 0.786743 56.0711 0.786743C25.5776 0.786743 0.857788 25.5066 0.857788 56C0.857788 86.4935 25.5776 111.213 56.0711 111.213Z" fill="#25D366"/>
<path fill-rule="evenodd" clip-rule="evenodd" d="M57.8911 86.7182H57.8775C52.3827 86.7163 46.9836 85.3377 42.1882 82.722L24.7837 87.2875L29.4414 70.2746C26.5683 65.2954 25.0565 59.6475 25.059 53.8611C25.0662 35.7591 39.7944 21.0316 57.8908 21.0316C66.6736 21.0354 74.9169 24.4545 81.1155 30.6604C87.3141 36.8659 90.726 45.1146 90.7225 53.887C90.7152 71.9849 75.9928 86.7108 57.8911 86.7182ZM42.9946 76.7784L43.991 77.3698C48.1808 79.856 52.9834 81.1716 57.8801 81.1735H57.8911C72.9316 81.1735 85.173 68.9318 85.1791 53.8851C85.1819 46.5935 82.3462 39.7376 77.1941 34.5796C72.0421 29.4215 65.1906 26.5795 57.9019 26.577C42.8498 26.577 30.6082 38.8174 30.6022 53.863C30.6001 59.0192 32.0428 64.0407 34.7744 68.3854L35.4232 69.4178L32.6665 79.4876L42.9946 76.7784ZM73.3079 60.9556C73.8801 61.2321 74.2664 61.4188 74.4314 61.6942C74.6364 62.0363 74.6364 63.6788 73.9532 65.5953C73.2693 67.5115 69.992 69.2604 68.4157 69.4959C67.0025 69.7072 65.2139 69.7953 63.2488 69.1708C62.0573 68.7928 60.5294 68.288 58.5722 67.4428C50.8815 64.122 45.6843 56.6681 44.702 55.2594C44.6332 55.1607 44.5851 55.0917 44.5582 55.0558L44.5516 55.047C44.1175 54.4677 41.2085 50.5865 41.2085 46.5696C41.2085 42.7909 43.0647 40.8102 43.9191 39.8985C43.9776 39.8361 44.0315 39.7786 44.0797 39.726C44.8316 38.9047 45.7204 38.6993 46.2673 38.6993C46.8141 38.6993 47.3616 38.7044 47.8396 38.7284C47.8985 38.7314 47.9599 38.731 48.0233 38.7306C48.5014 38.7278 49.0973 38.7243 49.6853 40.1366C49.9115 40.6801 50.2424 41.4858 50.5915 42.3356C51.2974 44.0542 52.0774 45.953 52.2146 46.2278C52.4197 46.6384 52.5564 47.1173 52.283 47.6651C52.2419 47.7472 52.2039 47.8247 52.1677 47.8988C51.9623 48.318 51.8112 48.6265 51.4626 49.0335C51.3256 49.1935 51.1839 49.3661 51.0422 49.5386C50.76 49.8823 50.4778 50.2259 50.2321 50.4707C49.8214 50.8798 49.3939 51.3236 49.8724 52.1449C50.351 52.9662 51.9973 55.6525 54.4361 57.8278C57.0576 60.1661 59.3361 61.1544 60.491 61.6554C60.7165 61.7532 60.8992 61.8325 61.0332 61.8995C61.8532 62.3103 62.3318 62.2416 62.8104 61.6942C63.2889 61.1468 64.8611 59.2987 65.4079 58.4776C65.9547 57.6566 66.5018 57.7934 67.2536 58.067C68.0057 58.341 72.0389 60.3254 72.8593 60.736C73.0194 60.8162 73.1691 60.8885 73.3079 60.9556Z" fill="#FDFDFD"/>
</svg>
