<svg width="296" height="57" viewBox="0 0 296 57" fill="none" xmlns="http://www.w3.org/2000/svg">
<g clip-path="url(#clip0_152_307)">
<path fill-rule="evenodd" clip-rule="evenodd" d="M177.511 52.7593C177.22 53.5775 176.599 53.6095 176.294 53.6095C176.017 53.6095 169.116 53.5966 169.116 53.5966V46.0662H176.06V43.8887H169.116V37.4822C169.116 37.4822 175.936 37.4697 176.17 37.4697C176.48 37.4697 177.095 37.5036 177.382 38.3195H178.122V35.3008H165.767V36.0382C166.01 36.1209 166.173 36.2369 166.296 36.3659C166.568 36.6792 166.597 37.0914 166.611 37.2476V53.8354C166.592 54.0532 166.568 54.6387 165.791 55.0299C165.781 55.0323 165.776 55.0361 165.767 55.0428V55.7784H178.246V52.7593H177.511Z" fill="#12151A"/>
<path fill-rule="evenodd" clip-rule="evenodd" d="M209.522 52.7593C209.231 53.5775 208.615 53.6095 208.309 53.6095C208.033 53.6095 201.133 53.5966 201.133 53.5966V46.0662H208.071V43.8887H201.133V37.4822C201.133 37.4822 207.947 37.4697 208.191 37.4697C208.496 37.4697 209.106 37.5036 209.398 38.3195H210.133V35.3008H197.782V36.0382C198.021 36.1209 198.188 36.2369 198.312 36.3659C198.589 36.6792 198.613 37.0914 198.627 37.2476V53.8354C198.608 54.0532 198.584 54.6387 197.806 55.0299C197.797 55.0323 197.792 55.0361 197.782 55.0428V55.7784H210.261V52.7593H209.522Z" fill="#12151A"/>
<path fill-rule="evenodd" clip-rule="evenodd" d="M162.097 36.0406V35.3008H145.976V36.0406C146.793 36.3301 146.821 36.9453 146.826 37.2543C146.826 37.7023 146.826 53.3831 146.826 53.8291C146.826 54.1358 146.793 54.751 145.976 55.0428V55.7784H150.171V55.0428C149.356 54.751 149.322 54.1358 149.322 53.8291C149.322 53.5331 149.327 37.4932 149.327 37.4932H158.751C158.751 37.4932 158.747 53.3831 158.747 53.8291C158.747 54.1358 158.718 54.751 157.902 55.0428V55.7784H162.097V55.0428C161.276 54.751 161.248 54.1358 161.248 53.8291C161.248 53.5331 161.248 37.5628 161.248 37.2543C161.248 36.9453 161.281 36.3301 162.097 36.0406Z" fill="#12151A"/>
<path fill-rule="evenodd" clip-rule="evenodd" d="M133.092 46.0519H141.715V43.9082H133.092V46.0519Z" fill="#12151A"/>
<path fill-rule="evenodd" clip-rule="evenodd" d="M58.9813 52.621C58.7093 53.5069 58.046 53.5556 57.8217 53.5896C57.8217 53.5896 56.5332 53.7099 54.9203 53.7099C53.3694 53.7099 52.1763 53.1817 51.3555 52.1304C50.5347 51.0839 50.2007 49.5283 50.2007 47.4625V43.6319C50.2007 39.4564 51.723 37.3739 54.9203 37.3739C56.3137 37.3739 57.7645 37.511 57.7645 37.511C57.9935 37.543 58.6473 37.638 58.9289 38.4796H59.6924V35.6592C59.6924 35.6592 58.8191 35.471 57.6833 35.3253C56.5476 35.1835 55.7936 35.1113 54.9012 35.1113C52.644 35.1113 50.864 35.8307 49.5708 37.2721C48.2728 38.7141 47.6238 40.8329 47.6238 43.6319V47.4625C47.6238 50.2447 48.2776 52.3568 49.5851 53.805C50.8879 55.2446 52.6583 55.972 54.9012 55.972C56.2517 55.972 57.0916 55.9257 57.9362 55.8159C58.7189 55.7117 59.7497 55.5049 59.7497 55.5049V52.621H58.9813Z" fill="#12151A"/>
<path fill-rule="evenodd" clip-rule="evenodd" d="M262.65 35.3008H258.078V36.0258C258.689 36.2666 258.985 36.6559 258.622 37.6049C258.264 38.5563 255.028 47.2097 255.028 47.2097C255.028 47.2097 254.494 47.1461 254.26 46.6747C253.969 46.0915 250.653 37.8122 250.437 37.2816C250.218 36.7552 250.376 36.1949 251.02 36.0258V35.3008H246.305V36.0406C247.169 36.1653 247.522 36.7595 247.718 37.2118C247.942 37.7382 251.593 46.8208 251.869 47.5163C252.151 48.2098 252.37 48.5523 252.628 48.8039C253.057 49.2243 253.539 49.3471 254.117 49.5415C254.117 49.5415 253.606 50.9519 253.158 52.0576C252.657 53.2985 251.755 53.715 250.896 53.715C250.571 53.715 249.937 53.5183 249.755 52.8715H248.958V55.5816C248.958 55.5816 249.474 55.9752 251.029 55.9752C252.375 55.9752 252.953 55.6982 253.726 55.178C254.341 54.7653 254.952 53.9156 255.458 52.7464C255.959 51.5776 261.013 37.9202 261.29 37.2543C261.562 36.5842 261.862 36.1801 262.65 36.0406V35.3008Z" fill="#12151A"/>
<path fill-rule="evenodd" clip-rule="evenodd" d="M69.4276 17.47C69.4276 17.47 71.9282 8.4742 72.0141 8.2459C72.0952 8.01327 72.2575 7.88864 72.4818 7.88864C72.7204 7.88864 72.8778 8.02192 72.9542 8.28414C73.0354 8.54395 75.5073 17.47 75.5073 17.47H69.4276ZM79.9454 24.2877C79.8881 24.1105 75.2687 7.81032 75.2687 7.81032C74.8679 6.42755 73.942 5.74023 72.4818 5.74023C71.0024 5.74023 70.0671 6.43614 69.671 7.83802C69.671 7.83802 65.3761 23.1424 64.9991 24.2877C64.708 25.1675 64.2499 25.4655 63.6152 25.6604V26.4022H68.3587V25.6604C68.3587 25.6604 67.3852 25.3113 67.6381 24.3049C68.1106 22.4063 68.9075 19.6518 68.9075 19.6518H76.0322C76.0322 19.6518 77.1823 23.8063 77.3063 24.3049C77.5545 25.3113 76.5858 25.6604 76.5858 25.6604V26.4022H81.3245V25.6604C80.6945 25.4655 80.2317 25.1675 79.9454 24.2877Z" fill="#12151A"/>
<path fill-rule="evenodd" clip-rule="evenodd" d="M67.4233 46.8469C67.4233 46.8469 69.9286 37.8554 70.0145 37.6228C70.0956 37.3902 70.2578 37.2655 70.4822 37.2655C70.7208 37.2655 70.8783 37.3988 70.9546 37.6605C71.031 37.9209 73.5077 46.8469 73.5077 46.8469H67.4233ZM77.9457 53.667C77.8837 53.4874 73.2643 37.1872 73.2643 37.1872C72.8682 35.8025 71.9424 35.1152 70.4822 35.1152C69.0029 35.1152 68.0675 35.813 67.6714 37.2125C67.6714 37.2125 63.3765 52.5188 62.9995 53.667C62.7132 54.5444 62.2503 54.8448 61.6156 55.0368V55.7791H66.3591V55.0368C66.3591 55.0368 65.3856 54.6882 65.6385 53.6837C66.1157 51.7813 66.9078 49.0287 66.9078 49.0287H74.0326C74.0326 49.0287 75.1779 53.1832 75.3019 53.6837C75.5549 54.6882 74.5862 55.0368 74.5862 55.0368V55.7791H79.3248V55.0368C78.6949 54.8448 78.232 54.5444 77.9457 53.667Z" fill="#12151A"/>
<path fill-rule="evenodd" clip-rule="evenodd" d="M98.7903 7.87734C98.7903 7.5688 98.8188 6.95122 99.6397 6.66369V5.92383H95.4403V6.66369C96.2563 6.95122 96.2897 7.5688 96.2897 7.87734C96.2897 8.32105 96.2897 14.5136 96.2897 14.5136H86.8648C86.8648 14.5136 86.8648 8.14389 86.8648 7.87734C86.8648 7.5688 86.8982 6.95122 87.7142 6.66369V5.92383H83.5148V6.66369C84.3356 6.95122 84.3642 7.5688 84.3642 7.87734C84.3642 8.14147 84.3642 24.1413 84.3642 24.4522C84.3642 24.7564 84.3356 25.376 83.5148 25.6659V26.4014H87.7142V25.6659C86.8982 25.376 86.8648 24.7564 86.8648 24.4522C86.8648 24.1394 86.8648 16.7017 86.8648 16.7017H96.2897C96.2897 16.7017 96.2897 24.0061 96.2897 24.4522C96.2897 24.7564 96.2563 25.376 95.4403 25.6659V26.4014H99.6397V25.6659C98.8188 25.376 98.7903 24.7564 98.7903 24.4522C98.7903 23.9975 98.7903 8.32969 98.7903 7.87734Z" fill="#12151A"/>
<path fill-rule="evenodd" clip-rule="evenodd" d="M96.7289 37.2543C96.7289 36.9453 96.7575 36.3301 97.5783 36.0406V35.3008H93.3789V36.0406C94.1949 36.3301 94.2283 36.9453 94.2283 37.2543C94.2283 37.6961 94.2283 43.8906 94.2283 43.8906H84.8034C84.8034 43.8906 84.8034 37.5203 84.8034 37.2543C84.8034 36.9453 84.8368 36.3301 85.6529 36.0406V35.3008H81.4583V36.0406C82.2742 36.3301 82.3076 36.9453 82.3076 37.2543C82.3076 37.5165 82.3076 53.5183 82.3076 53.8291C82.3076 54.1358 82.2742 54.751 81.4583 55.0428V55.7784H85.6529V55.0428C84.8368 54.751 84.8034 54.1358 84.8034 53.8291C84.8034 53.5163 84.8034 46.0786 84.8034 46.0786H94.2283C94.2283 46.0786 94.2283 53.3831 94.2283 53.8291C94.2283 54.1358 94.1949 54.751 93.3789 55.0428V55.7784H97.5783V55.0428C96.7575 54.751 96.7289 54.1358 96.7289 53.8291C96.7289 53.3769 96.7289 37.7067 96.7289 37.2543Z" fill="#12151A"/>
<path fill-rule="evenodd" clip-rule="evenodd" d="M117.673 24.4479L110.425 14.4797L116.275 7.87067C116.996 7.04245 117.373 6.8748 118.146 6.66178V5.92383H114.92L106.75 15.4459C106.75 15.4459 106.75 8.16491 106.75 7.87734C106.75 7.5688 106.783 6.95122 107.599 6.66369V5.92383H103.405V6.66369C104.221 6.95122 104.249 7.5688 104.249 7.87734C104.249 8.15817 104.249 24.1542 104.249 24.4522C104.249 24.7608 104.221 25.376 103.405 25.6659V26.4014H107.599V25.6659C106.783 25.376 106.75 24.7608 106.75 24.4522C106.75 24.1518 106.75 18.6298 106.75 18.6298L108.749 16.3697L115.989 26.399H119.678V25.6597C118.871 25.4944 118.313 25.1582 117.673 24.4479Z" fill="#12151A"/>
<path fill-rule="evenodd" clip-rule="evenodd" d="M115.612 53.8225L108.363 43.8566L114.214 37.25C114.939 36.417 115.311 36.2522 116.08 36.0382V35.3008H112.858L104.689 44.8205C104.689 44.8205 104.689 37.5395 104.689 37.2543C104.689 36.9434 104.722 36.3282 105.538 36.0382V35.3008H101.343V36.0382C102.159 36.3282 102.188 36.9434 102.188 37.2543C102.188 37.5351 102.188 53.5306 102.188 53.8291C102.188 54.1358 102.159 54.751 101.343 55.0428V55.7784H105.538V55.0428C104.722 54.751 104.689 54.1358 104.689 53.8291C104.689 53.5268 104.689 48.0068 104.689 48.0068L106.688 45.7466L113.927 55.776H117.616V55.0361C116.81 54.8714 116.251 54.5308 115.612 53.8225Z" fill="#12151A"/>
<path fill-rule="evenodd" clip-rule="evenodd" d="M59.5827 20.5365C59.5827 21.8266 59.1628 22.7738 58.3324 23.3675C57.4973 23.9684 56.2279 24.2664 54.0423 24.2664C53.3074 24.2664 52.3864 24.2769 51.1504 24.1838V16.6486C52.3673 16.5789 53.336 16.5388 54.0423 16.5388C56.0657 16.5388 57.4973 16.8368 58.3324 17.4353C59.1628 18.0338 59.5827 18.9724 59.5827 20.2557V20.5365ZM54.0423 14.4162C53.2072 14.4162 52.2385 14.4501 51.1504 14.5198V8.09516C51.1504 8.09516 57.9411 8.09516 58.2561 8.09516C58.5662 8.09516 59.177 8.12667 59.4681 8.94484H60.2078V5.92383H47.8004V6.66369C48.6069 6.95982 48.6498 7.5134 48.6498 7.86254C48.6498 8.16059 48.6498 24.0949 48.6498 24.4522C48.6498 24.7564 48.6164 25.376 47.8004 25.6659V26.4014C47.8004 26.4014 52.6775 26.4014 54.1759 26.4014C59.368 26.4014 62.0833 24.3954 62.0833 20.5365V20.283C62.0833 16.3678 59.4013 14.4162 54.0423 14.4162Z" fill="#12151A"/>
<path fill-rule="evenodd" clip-rule="evenodd" d="M242.277 49.9135C242.277 51.2074 241.867 52.1503 241.032 52.7445C240.197 53.3448 238.932 53.6429 236.747 53.6429C236.007 53.6429 235.091 53.6515 233.855 53.5583V46.0256C235.072 45.9558 236.035 45.9158 236.747 45.9158C238.765 45.9158 240.197 46.2138 241.032 46.8122C241.867 47.4084 242.277 48.3492 242.277 49.6303V49.9135ZM236.747 43.7912C235.911 43.7912 234.947 43.827 233.855 43.8968V37.4697C233.855 37.4697 240.641 37.4697 240.96 37.4697C241.266 37.4697 241.881 37.5036 242.168 38.3195H242.908V35.3008H230.5V36.0382C231.306 36.3363 231.349 36.8903 231.349 37.2395C231.349 37.5376 231.349 53.4719 231.349 53.8291C231.349 54.1334 231.32 54.751 230.5 55.0386V55.7784C230.5 55.7784 235.382 55.7784 236.88 55.7784C242.067 55.7784 244.782 53.7718 244.782 49.9135V49.6599C244.782 45.7447 242.105 43.7912 236.747 43.7912Z" fill="#12151A"/>
<path fill-rule="evenodd" clip-rule="evenodd" d="M117.845 35.3008V38.3195H118.585C118.871 37.5036 119.487 37.4697 119.792 37.4697C120.107 37.4697 123.758 37.4697 123.758 37.4697C123.758 37.4697 123.753 53.3831 123.753 53.8291C123.753 54.1358 123.724 54.751 122.908 55.0428V55.7784H127.103V55.0428C126.287 54.751 126.254 54.1358 126.254 53.8291C126.254 53.501 126.259 37.4697 126.259 37.4697C126.259 37.4697 129.918 37.4697 130.214 37.4697C130.52 37.4697 131.135 37.5036 131.427 38.3195H132.162V35.3008H117.845Z" fill="#12151A"/>
<path fill-rule="evenodd" clip-rule="evenodd" d="M180.865 35.3008V38.3195H181.605C181.896 37.5036 182.512 37.4697 182.817 37.4697C183.127 37.4697 186.778 37.4697 186.778 37.4697C186.778 37.4697 186.778 53.3831 186.778 53.8291C186.778 54.1358 186.744 54.751 185.928 55.0428V55.7784H190.128V55.0428C189.307 54.751 189.279 54.1358 189.279 53.8291C189.279 53.501 189.283 37.4697 189.283 37.4697C189.283 37.4697 192.944 37.4697 193.234 37.4697C193.54 37.4697 194.161 37.5036 194.447 38.3195H195.182V35.3008H180.865Z" fill="#12151A"/>
<path fill-rule="evenodd" clip-rule="evenodd" d="M225.098 41.4501C225.098 42.9173 224.693 43.9743 223.881 44.5938C223.07 45.2152 221.743 45.5261 219.891 45.5261C219.743 45.5261 218.851 45.4774 217.167 45.4034V37.3485C218.107 37.2789 218.999 37.2387 219.891 37.2387C221.724 37.2387 223.051 37.5387 223.867 38.1496C224.687 38.7523 225.098 39.7334 225.098 41.0885V41.4501ZM219.891 35.1113C219.137 35.1113 218.154 35.1538 216.933 35.1921C215.382 35.2427 213.817 35.3 213.817 35.3V36.0375C214.633 36.3274 214.666 36.9426 214.666 37.2492C214.666 37.5831 214.662 53.3823 214.662 53.8284C214.662 54.135 214.633 54.7502 213.812 55.0421V55.7776H218.011V55.0421C217.195 54.7502 217.162 54.135 217.162 53.8284C217.162 53.4797 217.167 47.4754 217.167 47.4754C218.351 47.5685 219.238 47.6254 219.891 47.6254C225.027 47.6254 227.603 45.5682 227.603 41.4501V41.0885C227.603 37.1074 225.027 35.1113 219.891 35.1113Z" fill="#12151A"/>
<path fill-rule="evenodd" clip-rule="evenodd" d="M275.849 41.4501C275.849 42.9173 275.449 43.9743 274.632 44.5938C273.821 45.2152 272.494 45.5261 270.647 45.5261C270.495 45.5261 269.603 45.4774 267.918 45.4034V37.3485C268.863 37.2789 269.751 37.2387 270.647 37.2387C272.475 37.2387 273.802 37.5387 274.618 38.1496C275.438 38.7523 275.849 39.7334 275.849 41.0885V41.4501ZM270.647 35.1113C269.893 35.1113 268.906 35.1538 267.684 35.1921C266.133 35.2427 264.573 35.3 264.573 35.3V36.0375C265.384 36.3274 265.422 36.9426 265.422 37.2492C265.422 37.5831 265.418 53.3823 265.418 53.8284C265.418 54.135 265.384 54.7502 264.568 55.0421V55.7776H268.762V55.0421C267.947 54.7502 267.913 54.135 267.913 53.8284C267.913 53.4797 267.918 47.4754 267.918 47.4754C269.101 47.5685 269.994 47.6254 270.647 47.6254C275.782 47.6254 278.354 45.5682 278.354 41.4501V41.0885C278.354 37.1074 275.782 35.1113 270.647 35.1113Z" fill="#12151A"/>
<path fill-rule="evenodd" clip-rule="evenodd" d="M280.969 35.3008V36.0382C281.785 36.3282 281.814 36.9453 281.814 37.2543C281.814 37.5839 281.814 53.5354 281.814 53.8291C281.814 54.1358 281.785 54.751 280.969 55.0428V55.7784H285.164V55.0428C284.348 54.751 284.315 54.1358 284.315 53.8291C284.315 53.5331 284.319 37.4611 284.319 37.4611C284.319 37.4611 290.289 37.4697 290.742 37.4697C291.053 37.4697 291.668 37.5036 291.955 38.3195H292.694V35.3008H280.969Z" fill="#12151A"/>
</g>
<g clip-path="url(#clip1_152_307)">
<path fill-rule="evenodd" clip-rule="evenodd" d="M30.602 22.1188C27.7172 30.3661 18.721 34.6873 10.5183 31.7827C2.31097 28.8754 -1.98995 19.8419 0.899508 11.5946C3.79847 3.34916 12.79 -0.97629 20.9879 1.93059C29.1905 4.83747 33.4962 13.8733 30.602 22.1188Z" fill="url(#paint0_linear_152_307)"/>
<path fill-rule="evenodd" clip-rule="evenodd" d="M31.5002 42.6367L31.505 44.2416C31.5145 47.2817 24.4762 49.7741 15.7745 49.8079C7.07767 49.8376 0.0203607 47.3978 0.0108559 44.3534L0.00610352 42.7552L31.5002 42.6367Z" fill="url(#paint1_linear_152_307)"/>
<path fill-rule="evenodd" clip-rule="evenodd" d="M31.5003 42.6361C31.5097 45.6824 24.4667 48.1752 15.7745 48.2029C7.07293 48.2326 0.0156179 45.7947 0.00611312 42.7546C-0.00339167 39.7101 7.03966 37.2178 15.7365 37.1858C24.4287 37.1562 31.4908 39.5959 31.5003 42.6361Z" fill="url(#paint2_linear_152_307)"/>
<path fill-rule="evenodd" clip-rule="evenodd" d="M0.00610352 54.8743C0.00610352 54.4281 7.05866 53.9863 15.7556 53.9863C24.4524 53.9863 31.505 54.4281 31.505 54.8743V55.8233C31.505 56.2675 24.4524 56.7074 15.7556 56.7074C7.05866 56.7074 0.00610352 56.2675 0.00610352 55.8233V54.8743Z" fill="url(#paint3_linear_152_307)"/>
</g>
<defs>
<linearGradient id="paint0_linear_152_307" x1="11.9156" y1="22.0338" x2="36.0172" y2="-10.16" gradientUnits="userSpaceOnUse">
<stop stop-color="#C72536"/>
<stop offset="1" stop-color="#E5762B"/>
</linearGradient>
<linearGradient id="paint1_linear_152_307" x1="21.0925" y1="46.166" x2="32.0548" y2="51.7075" gradientUnits="userSpaceOnUse">
<stop stop-color="#8F2033"/>
<stop offset="1" stop-color="#B02837"/>
</linearGradient>
<linearGradient id="paint2_linear_152_307" x1="13.7785" y1="43.6884" x2="19.3655" y2="20.7643" gradientUnits="userSpaceOnUse">
<stop stop-color="#C72536"/>
<stop offset="1" stop-color="#EA8B31"/>
</linearGradient>
<linearGradient id="paint3_linear_152_307" x1="12.4526" y1="55.4794" x2="11.6261" y2="59.9169" gradientUnits="userSpaceOnUse">
<stop stop-color="#8F2033"/>
<stop offset="1" stop-color="#B02837"/>
</linearGradient>
<clipPath id="clip0_152_307">
<rect width="248.376" height="55.6816" fill="white" transform="translate(47.6238 0.292969)"/>
</clipPath>
<clipPath id="clip1_152_307">
<rect width="31.505" height="55.6816" fill="white" transform="translate(0 1.02539)"/>
</clipPath>
</defs>
</svg>
