<svg width="297" height="72" viewBox="0 0 297 72" fill="none" xmlns="http://www.w3.org/2000/svg">
<path d="M121.028 0.793856H151.828V5.22459H125.836V19.9257H147.443V24.3515H125.836V39.4218H152.131V43.8526H121.028V0.793856Z" fill="#192038"/>
<path d="M206.369 0.808152H211.178V39.3731H233.39V43.8622H206.369V0.808152Z" fill="#192038"/>
<path d="M248.232 0.808152H243.424V43.8622H248.232V0.808152Z" fill="#192038"/>
<path d="M52.8543 0.764462H48.1567L29.5979 43.9204H34.5262L39.5937 32.5424H61.2297L66.2253 43.9204H71.3986L52.8543 0.764462ZM41.4688 28.1747L50.4454 6.21543L59.3643 28.1747H41.4688Z" fill="#192038"/>
<path d="M195.465 43.8815L187.266 25.6677C191.768 23.4379 195.657 19.2015 195.657 13.7165C195.657 10.2088 194.435 7.19184 192.355 5.09793C189.666 2.39187 184.661 0.788656 179.431 0.788656H162.679V43.8815H167.487V27.135H182.753L190.247 43.8864L195.465 43.8815ZM178.997 22.7674H167.487V5.27769H179.05C185.954 5.27769 190.752 8.47929 190.752 13.7748C190.766 19.4396 185.42 22.7674 178.997 22.7674Z" fill="#192038"/>
<path d="M24.4584 20.6686H4.82723V5.28255H31.8674L31.877 0.788656H0V43.8815H4.82723V25.1043H24.439L24.4584 20.6686Z" fill="#192038"/>
<path d="M78.5398 0.803011H95.8774C100.767 0.803011 104.681 2.15362 107.066 4.61676C107.963 5.54217 108.667 6.64065 109.135 7.84673C109.604 9.0528 109.827 10.3418 109.792 11.6369C109.792 17.2385 106.373 20.1292 103.008 21.6109C108.085 23.1462 111.552 25.7891 111.552 31.8133C111.552 39.1979 106.008 43.8813 96.6468 43.8813H78.5398V0.803011ZM95.0793 20.0078C100.892 20.0078 104.926 17.3648 104.926 12.1908C104.926 7.93981 101.56 5.17544 95.4496 5.17544H83.3094V20.0078H95.0793ZM96.8102 39.5233C103.291 39.5233 107.33 36.6084 107.33 31.7016C107.33 27.0279 103.412 24.317 95.9545 24.317H83.3094V39.5233H96.8102Z" fill="#192038"/>
<path d="M293.015 32.5618C290.84 35.6264 287.754 37.9103 284.206 39.0813C280.658 40.2522 276.834 40.2494 273.288 39.073C269.742 37.8964 266.66 35.6079 264.49 32.54C262.32 29.472 261.175 25.7846 261.221 22.0138C261.268 18.2431 262.504 14.5856 264.748 11.5731C266.994 8.5607 270.131 6.35036 273.704 5.2635C277.279 4.17665 281.103 4.26995 284.62 5.5298C288.136 6.78966 291.165 9.1504 293.263 12.2688L297 9.76194C294.366 5.8389 290.562 2.86801 286.143 1.28218C281.721 -0.30365 276.914 -0.42152 272.424 0.945743C267.931 2.31301 263.989 5.09395 261.172 8.8833C258.353 12.6727 256.805 17.2724 256.756 22.0122C256.706 26.7521 258.153 31.3844 260.891 35.2339C263.628 39.0834 267.51 41.9491 271.972 43.4135C276.434 44.8777 281.241 44.864 285.694 43.3743C290.148 41.8847 294.014 38.9969 296.73 35.1319L293.015 32.5618Z" fill="#192038"/>
<path d="M0.00961805 53.9093H4.70222C6.07557 53.8483 7.45013 53.9974 8.77941 54.3513C9.64697 54.6312 10.3881 55.2132 10.8709 55.9934C11.3061 56.7013 11.5298 57.5211 11.5152 58.3545C11.5415 58.8722 11.4581 59.3896 11.2708 59.8723C11.0834 60.3548 10.7963 60.7914 10.4286 61.1528C9.90481 61.6083 9.28726 61.9403 8.62074 62.1245C11.185 62.7108 12.4672 64.1683 12.4672 66.497C12.4892 67.1752 12.3652 67.85 12.1037 68.475C11.8422 69.1 11.4495 69.66 10.9526 70.1164C9.91509 70.9884 8.61858 71.4844 7.26971 71.5252C6.62863 71.5803 5.58209 71.6078 4.13008 71.6078H0L0.00961805 53.9093ZM3.3031 61.0363H4.74549C5.55783 61.081 6.37161 60.9807 7.1495 60.7399C7.47794 60.5527 7.75184 60.2814 7.94368 59.9534C8.13554 59.6253 8.23858 59.252 8.2425 58.871C8.24639 58.4899 8.151 58.1146 7.96589 57.7825C7.78079 57.4506 7.5125 57.1738 7.18797 56.9796C6.34061 56.7233 5.45552 56.618 4.57241 56.6688H3.31271L3.3031 61.0363ZM3.3031 68.8386H4.81762C6.37542 68.8386 7.40111 68.7269 7.89474 68.5034C8.66882 68.1488 9.04865 67.4152 9.04865 66.2978C9.04865 65.1805 8.61113 64.4128 7.73127 64.0581C6.81222 63.7803 5.85222 63.6669 4.89454 63.7229H3.3031V68.8386Z" fill="#192038"/>
<path d="M21.7036 61.0068H28.6561V63.9218H21.7036V68.7315H29.6321V71.6464H18.3333V53.9088H29.3484V56.8238H21.7036V61.0068Z" fill="#192038"/>
<path d="M43.195 53.9088H46.9692L50.6474 60.9583L54.2774 53.9088H57.9892L52.2581 64.6263V71.6027H48.8924V64.6263L43.195 53.9088Z" fill="#192038"/>
<path d="M68.975 53.5734C69.9613 53.5437 70.9433 53.7132 71.8639 54.0719C72.7844 54.4307 73.6249 54.9714 74.3359 55.6626C76.0285 57.3143 76.8746 59.669 76.8746 62.7264C76.8746 65.7839 76.0285 68.1435 74.3359 69.805C72.8721 71.1646 70.9561 71.9189 68.9678 71.9189C66.9795 71.9189 65.0636 71.1646 63.5996 69.805C61.9072 68.1499 61.0611 65.7483 61.0611 62.6002C61.0591 61.1935 61.3015 59.7975 61.7774 58.4756C62.3661 56.814 63.5404 55.4302 65.0757 54.589C66.2637 53.9079 67.6093 53.5576 68.975 53.5734ZM68.975 56.4884C68.3808 56.456 67.7878 56.572 67.2486 56.8262C66.7094 57.0804 66.2406 57.465 65.8835 57.9459C65.0117 59.141 64.5756 60.7135 64.5756 62.6633C64.5756 64.7232 65.0117 66.3524 65.8835 67.5507C66.2602 68.0127 66.7332 68.3849 67.2691 68.6404C67.8047 68.8956 68.3898 69.0282 68.9822 69.0282C69.5746 69.0282 70.1598 68.8956 70.6954 68.6404C71.2313 68.3849 71.7043 68.0127 72.081 67.5507C72.9496 66.3491 73.3855 64.7458 73.3887 62.741C73.3919 60.7362 72.956 59.1378 72.081 57.9459C71.7218 57.4591 71.2489 57.0696 70.7043 56.8127C70.1598 56.556 69.5606 56.4394 68.9606 56.4738L68.975 56.4884Z" fill="#192038"/>
<path d="M82.6634 53.9088H86.029V64.0675C85.9836 65.048 86.0793 66.0297 86.3126 66.9825C86.517 67.6357 86.9632 68.184 87.5581 68.5129C88.1802 68.8477 88.8773 69.015 89.5821 68.9986C91.4477 68.9986 92.5775 68.2213 92.9718 66.6667C93.1178 65.8054 93.1774 64.9312 93.1497 64.0578V53.9088H96.5154V64.1112C96.5376 65.0859 96.4814 66.0608 96.3469 67.0262C96.1469 68.4141 95.4147 69.6671 94.3083 70.5145C92.9012 71.437 91.2595 71.9279 89.5821 71.9279C87.9047 71.9279 86.2632 71.437 84.8559 70.5145C83.7478 69.668 83.0138 68.415 82.8125 67.0262C82.6803 66.0606 82.6255 65.0858 82.649 64.1112L82.6634 53.9088Z" fill="#192038"/>
<path d="M103.339 53.9087H107.714C108.936 53.8828 110.157 53.9526 111.368 54.1176C112.675 54.2903 113.861 54.9784 114.667 56.0317C115.364 56.9885 115.726 58.1526 115.696 59.3403C115.75 60.3859 115.48 61.4227 114.923 62.3058C114.366 63.1889 113.551 63.8745 112.59 64.2666L116.628 71.6026H112.705L109.123 64.8448H106.719V71.6026H103.354L103.339 53.9087ZM106.705 61.9444H107.921C108.881 61.9944 109.843 61.8944 110.772 61.6479C111.236 61.4756 111.629 61.1503 111.888 60.7248C112.139 60.3085 112.268 59.828 112.258 59.3403C112.287 58.9229 112.198 58.5059 112 58.1382C111.803 57.7707 111.505 57.4679 111.142 57.2659C110.602 57.0016 110.012 56.8559 109.412 56.8382C109.113 56.8382 108.532 56.8382 107.666 56.8382H106.705V61.9444Z" fill="#192038"/>
<path d="M131.721 53.9089H136.399C137.774 53.8482 139.15 53.9974 140.481 54.3509C141.347 54.6319 142.086 55.2137 142.568 55.993C143.003 56.7009 143.227 57.5209 143.212 58.3542C143.244 58.8686 143.168 59.3842 142.988 59.8665C142.808 60.3488 142.529 60.7872 142.169 61.1526C141.645 61.6079 141.028 61.9399 140.361 62.1243C142.925 62.7104 144.208 64.1679 144.208 66.4966C144.23 67.1748 144.106 67.8496 143.844 68.4746C143.583 69.0996 143.19 69.6596 142.693 70.116C141.657 70.988 140.362 71.484 139.015 71.525C138.374 71.5801 137.326 71.6076 135.87 71.6076H131.74L131.721 53.9089ZM135.015 61.0358H136.457C137.269 61.0806 138.083 60.9803 138.861 60.7396C139.189 60.5523 139.463 60.281 139.655 59.953C139.847 59.6249 139.95 59.2516 139.954 58.8706C139.958 58.4895 139.862 58.1143 139.678 57.7823C139.492 57.4502 139.224 57.1734 138.899 56.9793C138.052 56.7225 137.167 56.6173 136.284 56.6684H135.024L135.015 61.0358ZM135.015 68.8384H136.529C138.087 68.8384 139.111 68.7266 139.611 68.503C140.38 68.1468 140.765 67.4116 140.765 66.2974C140.765 65.1558 140.323 64.4124 139.443 64.0578C138.524 63.7799 137.564 63.6666 136.606 63.7225H135.015V68.8384Z" fill="#192038"/>
<path d="M153.414 61.0068H160.367V63.9218H153.414V68.7315H161.343V71.6464H150.044V53.9088H161.059V56.8238H153.414V61.0068Z" fill="#192038"/>
<path d="M178.508 59.0928H175.276C175.253 58.5155 175.055 57.9594 174.709 57.4993C174.428 57.1637 174.073 56.9005 173.671 56.7314C173.27 56.5625 172.835 56.4927 172.401 56.5276C171.79 56.5152 171.188 56.6841 170.67 57.0135C170.417 57.1605 170.208 57.373 170.063 57.6293C169.919 57.8855 169.844 58.176 169.848 58.4709C169.857 58.7568 169.947 59.034 170.106 59.2706C170.265 59.5071 170.488 59.6932 170.747 59.807C171.079 59.9916 172.041 60.4045 173.632 61.0507C175.224 61.6969 176.161 62.0952 176.517 62.2943C177.401 62.7425 178.124 63.4596 178.584 64.3445C178.892 65.036 179.045 65.7875 179.032 66.5454C179.064 67.3553 178.902 68.1615 178.559 68.8939C178.214 69.6261 177.698 70.2626 177.055 70.7477C175.809 71.6303 174.306 72.068 172.786 71.9914C170.023 71.9914 168.069 71.0878 166.925 69.2806C166.287 68.1766 165.955 66.9198 165.963 65.6418H169.218C169.443 67.9089 170.645 69.0425 172.824 69.0425C173.538 69.0723 174.243 68.8879 174.853 68.513C175.087 68.3723 175.279 68.1721 175.412 67.9325C175.544 67.6928 175.612 67.4223 175.608 67.1477C175.608 66.4774 175.204 65.9138 174.401 65.4669C174.089 65.2919 173.079 64.8499 171.377 64.1308C169.534 63.3437 168.311 62.6264 167.709 61.9786C166.902 61.1048 166.463 59.9477 166.487 58.7526C166.463 57.5444 166.894 56.3718 167.694 55.4734C168.363 54.7358 169.22 54.1981 170.17 53.9187C170.914 53.6812 171.689 53.5632 172.469 53.5689C173.713 53.5376 174.941 53.8555 176.017 54.4872C177.116 55.1222 177.923 56.1696 178.262 57.4021C178.397 57.9562 178.481 58.5225 178.508 59.0928Z" fill="#192038"/>
<path d="M183.253 53.9088H195.86V56.8238H191.211V71.6124H187.844V56.8141H183.238L183.253 53.9088Z" fill="#192038"/>
</svg>
