<svg width="340" height="44" viewBox="0 0 340 44" fill="none" xmlns="http://www.w3.org/2000/svg">
<g clip-path="url(#clip0_152_269)">
<path d="M66.9489 8.46875C71.6669 8.46875 75.4892 10.5414 77.1017 12.0811L74.4142 15.3382C73.1003 14.1538 70.1739 12.5549 66.9489 12.5549C61.0363 12.5549 57.3336 16.5818 57.3336 22.0892C57.3336 27.5966 60.8572 31.6235 67.0086 31.6235C70.5919 31.6235 73.6975 29.7285 75.0114 28.4257L77.5795 31.8012C75.967 33.4593 71.9058 35.7097 66.9489 35.7097C58.2294 35.7097 52.8544 29.9062 52.8544 22.03C52.8544 14.2722 58.4086 8.46875 66.9489 8.46875Z" fill="#213A8B"/>
<path d="M93.824 8.46875C101.887 8.46875 107.739 14.2722 107.739 22.1484C107.739 30.0246 101.887 35.8281 93.824 35.8281C85.7615 35.8281 79.9087 30.0246 79.9087 22.1484C79.9087 14.2722 85.7615 8.46875 93.824 8.46875ZM93.824 31.6827C99.2588 31.6827 103.32 27.5966 103.32 22.1484C103.32 16.641 99.3185 12.6141 93.824 12.6141C88.3893 12.6141 84.3282 16.7002 84.3282 22.1484C84.3282 27.5966 88.3893 31.6827 93.824 31.6827Z" fill="#213A8B"/>
<path d="M135.451 27.5962C135.451 31.4455 132.942 35.1763 126.552 35.1763H112.517V9.06055H125.716C131.091 9.06055 134.137 12.3176 134.137 16.0484C134.137 18.1211 133.181 20.0161 130.852 21.5558C133.181 22.3257 135.451 24.043 135.451 27.5962ZM116.817 13.1467V20.1346L125.178 20.0754C128.164 20.0754 129.717 18.4172 129.717 16.463C129.717 14.6864 128.403 13.1467 125.775 13.1467H116.817ZM126.791 31.0902C129.837 31.0902 131.031 29.432 131.031 27.5962C131.031 25.642 129.657 23.9838 126.91 23.9838H116.877V31.0902H126.791Z" fill="#213A8B"/>
<path d="M152.77 21.7335L164.416 35.1763H158.683L148.948 23.747H143.931V35.1763H139.571V9.06055H143.931V19.8385H148.948L158.444 9.06055H164.237L152.77 21.7335Z" fill="#213A8B"/>
<path d="M177.794 8.46875C185.856 8.46875 191.709 14.2722 191.709 22.1484C191.709 30.0246 185.856 35.8281 177.794 35.8281C169.731 35.8281 163.878 30.0246 163.878 22.1484C163.878 14.2722 169.731 8.46875 177.794 8.46875ZM177.794 31.6827C183.229 31.6827 187.29 27.5966 187.29 22.1484C187.29 16.641 183.288 12.6141 177.794 12.6141C172.359 12.6141 168.298 16.7002 168.298 22.1484C168.298 27.5966 172.359 31.6827 177.794 31.6827Z" fill="#213A8B"/>
<path d="M220.913 9.06055H225.094V35.1763H220.734V15.7523L212.074 27.2409H209.447L200.787 15.7523V35.1763H196.427V9.06055H200.608L210.761 22.4441L220.913 9.06055Z" fill="#213A8B"/>
<path d="M244.922 19.72C250.715 19.72 253.88 23.0955 253.88 27.4186C253.88 31.7416 250.715 35.1763 245.22 35.1763H230.887V9.06055H251.432V13.1467H235.247V19.72H244.922ZM245.041 31.0902C248.027 31.0902 249.401 29.432 249.401 27.4778C249.401 25.5235 248.027 23.8654 245.041 23.8654H235.247V31.0902H245.041Z" fill="#213A8B"/>
<path d="M277.948 35.1763L275.082 28.6622H262.6L259.733 35.1763H255.015L266.482 9.06055H271.259L282.726 35.1763H277.948ZM264.332 24.7537H273.409L268.871 14.3311L264.332 24.7537Z" fill="#213A8B"/>
<path d="M305.48 9.06055H309.84V35.1763H305.48V23.9838H290.251V35.1763H285.891V9.06055H290.251V19.8977H305.48V9.06055Z" fill="#213A8B"/>
<path d="M328.832 21.7335L340.538 35.1763H334.745L325.01 23.747H319.993V35.1763H315.633V9.06055H319.993V19.8385H325.01L334.506 9.06055H340.299L328.832 21.7335Z" fill="#213A8B"/>
<path d="M0.716675 22.1476C0.716675 34.1099 10.5112 43.8219 22.6348 43.8219C22.9334 43.8219 23.232 43.8219 23.5307 43.8219V35.5904H22.6348C15.1098 35.5904 9.07782 29.55 9.07782 22.1476C9.07782 14.7452 15.1695 8.70478 22.6348 8.70478H23.5307V0.414062C23.232 0.414062 22.9334 0.414062 22.6348 0.414062C10.5112 0.414062 0.716675 10.126 0.716675 22.1476Z" fill="#DA5155"/>
<path d="M26.9946 0.828125V12.139H22.6348C17.0209 12.139 12.5417 16.5805 12.5417 22.1471C12.5417 27.6545 17.0807 32.1552 22.6348 32.1552H26.9946V43.4661C36.9682 41.4526 44.4933 32.6882 44.4933 22.2063C44.4933 11.6061 36.9682 2.84158 26.9946 0.828125Z" fill="#213A8B"/>
</g>
<defs>
<clipPath id="clip0_152_269">
<rect width="340" height="44" fill="white"/>
</clipPath>
</defs>
</svg>
