<svg width="326" height="73" viewBox="0 0 326 73" fill="none" xmlns="http://www.w3.org/2000/svg">
<g clip-path="url(#clip0_152_92)">
<path fill-rule="evenodd" clip-rule="evenodd" d="M60.6139 39.4253V14.6357C60.5409 14.0543 60.5918 13.4637 60.7634 12.9038C60.9349 12.3439 61.2231 11.8275 61.6085 11.3895C62.5021 10.5937 63.6719 10.1891 64.8606 10.2649H78.587C80.1109 10.2649 82.5338 10.2649 84.3179 12.0116C86.2995 13.9259 86.5047 17.2119 86.5047 19.6766C86.5047 22.1412 86.2522 25.8022 83.9865 27.6527C82.7088 28.5991 81.1578 29.0951 79.5743 29.0644H66.0525V39.4333L60.6139 39.4253ZM76.4008 24.7175C77.5927 24.7175 78.9981 24.7175 79.9452 23.6327C80.8922 22.5479 80.8922 20.7613 80.8922 19.6447C80.8922 18.3526 80.766 16.5978 79.8662 15.6567C78.9664 14.7155 77.3954 14.6517 76.4876 14.6517H67.718C67.4901 14.6173 67.2576 14.6338 67.0366 14.7C66.8158 14.7661 66.6118 14.8803 66.4392 15.0345C66.2869 15.2249 66.1753 15.445 66.1115 15.6811C66.0476 15.9173 66.0329 16.1642 66.0683 16.4064V24.7334L76.4008 24.7175Z" fill="#0066B1"/>
<path fill-rule="evenodd" clip-rule="evenodd" d="M95.3376 39.4259L98.8423 32.9733L86.5123 10.2734H92.5352L101.644 27.9324L110.422 10.2734H116.357L101.233 39.4259H95.3376Z" fill="#0066B1"/>
<path fill-rule="evenodd" clip-rule="evenodd" d="M128.497 39.426C125.735 39.426 121.986 39.0511 119.31 36.0042C116.634 32.9574 116.381 28.4668 116.381 25.2605C116.381 21.097 116.752 16.8058 119.184 13.9344C122.073 10.5207 126.564 10.2734 128.655 10.2734H140.235V14.6443H131.213C128 14.6443 125.277 14.8596 123.628 17.3562C122.767 18.6483 122.049 20.8577 122.049 25.1887C122.049 29.5197 122.838 31.3542 123.406 32.2714C124.891 34.5605 127.526 35.0631 130.944 35.0631H140.717V39.434L128.497 39.426Z" fill="#0066B1"/>
<path fill-rule="evenodd" clip-rule="evenodd" d="M144.348 10.2734H149.81V39.426H144.372L144.348 10.2734ZM165.084 39.426L153.244 28.2595C151.547 26.6642 151.262 25.2605 151.262 24.5107C151.293 23.8825 151.448 23.267 151.719 22.701C151.99 22.135 152.372 21.6301 152.841 21.2166L163.766 10.3053H170.483L158.035 22.2695C157.088 23.1787 156.512 23.8646 156.512 24.5187C156.512 25.4359 157.538 26.433 158.366 27.1827L172.006 39.4738L165.084 39.426Z" fill="#0066B1"/>
<path fill-rule="evenodd" clip-rule="evenodd" d="M181.076 12.6813C181.652 11.3493 182.442 9.9375 185.489 9.9375C188.536 9.9375 189.317 11.3493 189.901 12.6813L201.031 39.425H195.261L186.12 16.1588C185.993 15.784 185.875 15.3612 185.465 15.3612C185.054 15.3612 184.888 15.8638 184.762 16.1588L175.653 39.441H169.883L181.076 12.6813Z" fill="#0066B1"/>
<path fill-rule="evenodd" clip-rule="evenodd" d="M224.277 39.4248L224.443 17.2673C224.443 16.8047 224.403 16.3181 224.032 16.3181C223.662 16.3181 223.369 16.9802 222.958 17.6502L211.119 37.0161C210.329 38.3082 209.469 39.7598 206.54 39.7598C202.38 39.7598 202.293 36.4338 202.293 34.7668V10.2803H207.732L207.605 32.023C207.605 32.685 207.605 33.3551 208.103 33.3551C208.435 33.3551 208.64 32.8526 208.892 32.4378L220.519 13.1915C222.098 10.6153 223.361 9.94531 225.343 9.94531C229.668 9.94531 229.755 13.7339 229.755 15.1935V39.4328L224.277 39.4248Z" fill="#0066B1"/>
<path fill-rule="evenodd" clip-rule="evenodd" d="M256.751 36.2586C255.764 38.8827 255.022 39.752 252.63 39.752C250.404 39.752 249.536 39.0103 248.51 36.2586L241.129 16.8049C241.003 16.4779 240.679 15.8478 240.427 15.8478C239.977 15.8478 239.977 16.5975 239.977 16.7252L240.103 39.425H234.665V13.7661C234.665 9.97738 238.493 9.9375 239.322 9.9375C241.421 9.9375 243.15 10.432 244.389 13.6862L251.849 33.132C252.093 33.762 252.385 34.2167 252.638 34.2167C252.891 34.2167 253.175 33.762 253.427 33.132L260.887 13.6862C262.118 10.432 263.855 9.9375 265.954 9.9375C268.638 9.9375 270.612 11.102 270.612 13.7661V39.425H265.173L265.338 16.7252C265.338 15.9276 265.015 15.8478 264.849 15.8478C264.565 15.8478 264.273 16.4699 264.147 16.8049L256.751 36.2586Z" fill="#0066B1"/>
<path fill-rule="evenodd" clip-rule="evenodd" d="M282.72 13.2237C283.746 10.767 284.867 9.9375 287.456 9.9375C289.927 9.9375 291.166 10.7352 292.192 13.2237L303.069 39.425H297.339L294.371 32.0552H280.478L277.558 39.425H271.827L282.72 13.2237ZM281.931 28.1389H292.982L288.245 16.2705C288.079 15.8478 287.787 15.0582 287.456 15.0582C287.125 15.0582 286.801 15.8558 286.667 16.2705L281.931 28.1389Z" fill="#0066B1"/>
<path fill-rule="evenodd" clip-rule="evenodd" d="M309.384 39.4259V14.6443H298.128V10.2734H326.118V14.6443H314.823V39.4259H309.384Z" fill="#0066B1"/>
<path fill-rule="evenodd" clip-rule="evenodd" d="M20.2783 26.7286C20.1046 26.585 19.9073 26.3936 19.6705 26.1783C18.3049 24.902 15.0212 22.0547 11.1455 22.0547C10.0935 22.0988 9.05008 22.2647 8.03553 22.5492C6.89117 22.9074 5.7772 23.3582 4.70443 23.8971C5.61017 22.8069 6.59709 21.7883 7.65658 20.8502C9.60274 19.2318 12.0142 18.2919 14.5318 18.1703C13.5793 14.7715 13.8089 11.1455 15.1821 7.8972C16.5554 4.64876 18.9893 1.97429 22.0779 0.319847C21.8815 0.212292 21.662 0.154792 21.4385 0.152344H5.53323C4.07163 0.164843 2.67343 0.757096 1.63989 1.80146C0.606337 2.84582 0.0201821 4.25869 0.0078125 5.73559V44.7624C0.00988473 45.1341 0.156949 45.49 0.417036 45.7528C0.677122 46.0156 1.02925 46.1642 1.39707 46.1662H21.4701C21.8386 46.1662 22.1919 46.0184 22.4525 45.7552C22.713 45.4919 22.8594 45.1348 22.8594 44.7624V28.6269C21.9713 28.052 21.1222 27.4179 20.3178 26.7286" fill="#0066B1"/>
<path fill-rule="evenodd" clip-rule="evenodd" d="M24.4381 22.0061C27.4377 24.1915 29.8767 25.3161 31.9369 25.4996C32.9374 25.5695 33.9423 25.5375 34.9364 25.4038C35.3787 25.3467 35.8148 25.2479 36.2389 25.1087C36.6228 24.9897 36.9997 24.8486 37.3676 24.686C37.7325 24.5048 38.0882 24.3052 38.4332 24.0878C38.6837 23.9283 38.9237 23.7524 39.1515 23.5614C39.2778 23.4577 39.7751 23.0031 39.9409 22.8276C40.2008 22.5346 40.4458 22.2284 40.675 21.9104C42.3077 19.5991 43.1677 16.8216 43.1298 13.9821C43.1298 10.2728 41.6715 6.71539 39.0758 4.0925C36.4801 1.46961 32.9596 -0.00390625 29.2886 -0.00390625C25.6178 -0.00390625 22.0972 1.46961 19.5014 4.0925C16.9058 6.71539 15.4475 10.2728 15.4475 13.9821C15.447 15.4112 15.6653 16.8318 16.0947 18.1935C18.5495 18.4407 21.4386 19.7887 24.4381 22.0061Z" fill="#E31F13"/>
<path fill-rule="evenodd" clip-rule="evenodd" d="M15.2185 19.5021C12.4195 19.6062 9.69702 20.4535 7.32508 21.9587H7.27772C7.21457 21.9587 7.23824 22.0305 7.31717 21.9986C8.76696 21.4269 10.3076 21.1269 11.8638 21.1132C16.9235 21.1132 19.923 24.6307 21.1228 25.6517C23.5959 27.833 26.8018 28.9747 30.0819 28.8421C32.1929 28.7761 34.2468 28.134 36.0257 26.9836C37.0627 26.2992 38.0051 25.4784 38.8279 24.543C38.9858 24.3117 38.8674 24.4393 38.8279 24.543C37.4591 25.6324 35.8212 26.322 34.0918 26.537C33.1225 26.6834 32.1391 26.7102 31.1633 26.6167C28.6296 26.4174 26.8693 25.6517 23.6645 23.0834C20.2151 20.4832 17.2945 19.4941 15.3133 19.4941L15.2185 19.5021Z" fill="#0066B1"/>
<path fill-rule="evenodd" clip-rule="evenodd" d="M46.6977 0.670293V43.8926C46.6935 45.4285 46.0873 46.9001 45.0119 47.9853C43.9364 49.0706 42.4791 49.6811 40.9592 49.6833H0.228893C0.0990977 49.6833 -0.0253894 49.6311 -0.117169 49.5384C-0.208948 49.4457 -0.260498 49.3198 -0.260498 49.1887V49.1409C-0.260498 49.0097 -0.208948 48.8839 -0.117169 48.7912C-0.0253894 48.6985 0.0990977 48.6463 0.228893 48.6463H40.9592C42.2152 48.6463 43.4199 48.1421 44.3081 47.2447C45.1962 46.3472 45.6952 45.1299 45.6952 43.8607V0.670293C45.6952 0.539139 45.7468 0.41335 45.8386 0.32061C45.9304 0.22787 46.0548 0.175781 46.1846 0.175781H46.232C46.3612 0.177837 46.4844 0.230589 46.5758 0.322886C46.6672 0.415184 46.7194 0.53978 46.7214 0.670293" fill="#0066B1"/>
<path d="M7.83566 58.7477H8.01872C8.95033 58.7477 9.796 58.9613 10.5557 59.3885C11.321 59.8101 11.9144 60.406 12.3359 61.1761C12.7628 61.9463 12.9763 62.8119 12.9763 63.7732C12.9763 64.7288 12.7628 65.5889 12.3359 66.3534C11.9144 67.1123 11.3266 67.7025 10.5724 68.1241C9.82372 68.5457 8.98363 68.7594 8.05194 68.765H7.83566V70.367H5.81438V68.765H5.61474C4.67756 68.765 3.82633 68.5542 3.06105 68.1326C2.29578 67.7054 1.70242 67.1123 1.28097 66.3534C0.865061 65.5946 0.657104 64.7401 0.657104 63.79C0.657104 62.8288 0.867833 61.9632 1.28929 61.193C1.71074 60.4229 2.30133 59.8242 3.06105 59.3969C3.82078 58.9641 4.67201 58.7477 5.61474 58.7477H5.81438V57.0781H7.83566V58.7477ZM5.61474 60.4594C4.6831 60.4594 3.95388 60.7545 3.42706 61.3448C2.90578 61.935 2.64515 62.7502 2.64515 63.79C2.64515 64.8019 2.90578 65.6001 3.42706 66.1848C3.94833 66.7637 4.68587 67.0533 5.63969 67.0533H5.81438V60.4594H5.61474ZM7.83566 60.4594V67.0533H8.03536C8.96698 67.0533 9.69061 66.7582 10.2064 66.1679C10.7276 65.5777 10.9883 64.7794 10.9883 63.7732C10.9883 62.7445 10.7276 61.935 10.2064 61.3448C9.69061 60.7545 8.95862 60.4594 8.01035 60.4594H7.83566Z" fill="#222222"/>
<path d="M22.737 64.3802H17.7627V68.1578H23.5771V69.861H15.6582V57.584H23.5189V59.3041H17.7627V62.6938H22.737V64.3802Z" fill="#222222"/>
<path d="M37.2804 72.8797H35.284V69.861H27.3069V72.8797H25.2773L25.2107 68.1578H26.184C26.6664 67.6855 27.0518 66.9997 27.3401 66.1003C27.6285 65.1953 27.8143 64.1722 27.8974 63.031L28.2136 57.584H35.8497V68.1578H37.3885L37.2804 72.8797ZM28.5629 68.1578H33.7534V59.3041H30.2182L30.0186 62.7613C29.8689 65.0716 29.3837 66.8705 28.5629 68.1578Z" fill="#222222"/>
<path d="M46.8996 64.3802H41.9253V68.1578H47.7397V69.861H39.8208V57.584H47.6815V59.3041H41.9253V62.6938H46.8996V64.3802Z" fill="#222222"/>
<path d="M52.4095 65.2993V69.861H50.3051V57.584H54.9383C56.2914 57.584 57.3644 57.9409 58.1574 58.6548C58.9559 59.3687 59.3552 60.3132 59.3552 61.488C59.3552 62.691 58.9643 63.6269 58.1823 64.2959C57.406 64.9648 56.3163 65.2993 54.9133 65.2993H52.4095ZM52.4095 63.5876H54.9383C55.6868 63.5876 56.2581 63.4105 56.6518 63.0564C57.0455 62.6966 57.2423 62.1795 57.2423 61.5049C57.2423 60.8415 57.0427 60.3132 56.6435 59.9197C56.2442 59.5205 55.6952 59.3153 54.9964 59.3041H52.4095V63.5876Z" fill="#222222"/>
<path d="M67.3523 67.0026H62.6608L61.6793 69.861H59.4916L64.0666 57.584H65.9548L70.5382 69.861H68.3421L67.3523 67.0026ZM63.2514 65.2824H66.7617L65.0066 60.1895L63.2514 65.2824Z" fill="#222222"/>
<path d="M82.4447 57.584V69.861H80.3485V59.3041H76.6387L76.4224 64.0513C76.3393 65.5354 76.159 66.6878 75.8817 67.5085C75.61 68.3235 75.2135 68.9195 74.6922 69.2961C74.1709 69.6727 73.4723 69.861 72.5961 69.861H72.0637V68.1578L72.3965 68.1325C72.8789 68.0875 73.2504 67.916 73.511 67.6181C73.7773 67.3201 73.9769 66.8705 74.1099 66.2689C74.2486 65.6619 74.3456 64.7709 74.4011 63.596L74.634 57.584H82.4447Z" fill="#222222"/>
<path d="M87.9047 62.2806H90.3834C91.2708 62.2806 92.0443 62.4352 92.7049 62.7444C93.3646 63.0536 93.8664 63.492 94.2102 64.0598C94.554 64.6275 94.7259 65.2853 94.7259 66.0328C94.7259 67.1796 94.3403 68.1016 93.5698 68.7986C92.804 69.4956 91.7586 69.8498 90.4337 69.861H85.8008V57.584H87.9047V62.2806ZM87.9047 63.9923V68.1578H90.3756C91.0849 68.1578 91.637 67.9638 92.0304 67.576C92.43 67.1825 92.6297 66.6624 92.6297 66.016C92.6297 65.3977 92.4354 64.9086 92.0474 64.5488C91.6595 64.1891 91.1213 64.0036 90.4337 63.9923H87.9047Z" fill="#222222"/>
<path d="M107.015 69.861H104.919V64.4055H99.5036V69.861H97.3989V57.584H99.5036V62.6938H104.919V57.584H107.015V69.861Z" fill="#222222"/>
<path d="M112.525 62.2806H115.004C115.891 62.2806 116.665 62.4352 117.324 62.7444C117.984 63.0536 118.487 63.492 118.83 64.0598C119.174 64.6275 119.346 65.2853 119.346 66.0328C119.346 67.1796 118.961 68.1016 118.189 68.7986C117.424 69.4956 116.379 69.8498 115.054 69.861H110.42V57.584H112.525V62.2806ZM122.64 69.861H120.543V57.584H122.64V69.861ZM112.525 63.9923V68.1578H114.995C115.705 68.1578 116.257 67.9638 116.651 67.576C117.05 67.1825 117.25 66.6624 117.25 66.016C117.25 65.3977 117.056 64.9086 116.668 64.5488C116.279 64.1891 115.742 64.0036 115.054 63.9923H112.525Z" fill="#222222"/>
<path d="M133.49 57.5834H135.594V69.8604H133.49V61.1164L128.175 69.8604H126.071V57.5834H128.175V66.3359L133.49 57.5834ZM133.557 54.4551C133.557 55.1634 133.312 55.7367 132.825 56.1752C132.337 56.6137 131.685 56.8329 130.87 56.8329C130.055 56.8329 129.403 56.6137 128.915 56.1752C128.427 55.7367 128.183 55.1634 128.183 54.4551H129.697C129.697 54.8261 129.8 55.1156 130.005 55.3236C130.216 55.526 130.504 55.6272 130.87 55.6272C131.236 55.6272 131.521 55.526 131.727 55.3236C131.932 55.1156 132.035 54.8261 132.035 54.4551H133.557Z" fill="#222222"/>
<path d="M151.481 57.584H153.585V69.861H151.481V61.117L146.166 69.861H144.061V57.584H146.166V66.3365L151.481 57.584Z" fill="#222222"/>
<path d="M166.573 69.861H164.477V64.4055H159.062V69.861H156.957V57.584H159.062V62.6938H164.477V57.584H166.573V69.861Z" fill="#222222"/>
<path d="M178.422 59.3041H174.645V69.861H172.557V59.3041H168.814V57.584H178.422V59.3041Z" fill="#222222"/>
<path d="M187.949 64.3802H182.975V68.1578H188.79V69.861H180.87V57.584H188.731V59.3041H182.975V62.6938H187.949V64.3802Z" fill="#222222"/>
<path d="M193.459 65.2993V69.861H191.355V57.584H195.988C197.341 57.584 198.414 57.9409 199.207 58.6548C200.005 59.3687 200.405 60.3132 200.405 61.488C200.405 62.691 200.014 63.6269 199.232 64.2959C198.456 64.9648 197.366 65.2993 195.963 65.2993H193.459ZM193.459 63.5876H195.988C196.737 63.5876 197.307 63.4105 197.702 63.0564C198.095 62.6966 198.292 62.1795 198.292 61.5049C198.292 60.8415 198.093 60.3132 197.693 59.9197C197.294 59.5205 196.745 59.3153 196.046 59.3041H193.459V63.5876Z" fill="#222222"/>
<path d="M212.719 69.861H210.623V64.4055H205.208V69.861H203.103V57.584H205.208V62.6938H210.623V57.584H212.719V69.861Z" fill="#222222"/>
<path d="M223.145 64.3802H218.171V68.1578H223.985V69.861H216.066V57.584H223.927V59.3041H218.171V62.6938H223.145V64.3802Z" fill="#222222"/>
<path d="M235.468 59.3041H231.692V69.861H229.603V59.3041H225.86V57.584H235.468V59.3041Z" fill="#222222"/>
<path d="M239.381 65.4671H235.013V63.8145H239.381V65.4671Z" fill="#222222"/>
<path d="M244.824 57.584L248.318 66.9942L251.803 57.584H254.523V69.861H252.427V65.8137L252.635 60.4003L249.058 69.861H247.553L243.984 60.4087L244.192 65.8137V69.861H242.096V57.584H244.824Z" fill="#222222"/>
<path d="M264.8 67.0026H260.108L259.126 69.861H256.938L261.513 57.584H263.402L267.985 69.861H265.789L264.8 67.0026ZM260.699 65.2824H264.209L262.453 60.1895L260.699 65.2824Z" fill="#222222"/>
<path d="M277.962 59.3041H272.372V69.861H270.276V57.584H277.962V59.3041Z" fill="#222222"/>
<path d="M285.635 67.0026H280.943L279.962 69.861H277.774L282.349 57.584H284.237L288.821 69.861H286.624L285.635 67.0026ZM281.534 65.2824H285.044L283.289 60.1895L281.534 65.2824Z" fill="#222222"/>
<path d="M297.108 60.9315C297.108 60.3806 296.903 59.9422 296.494 59.6161C296.083 59.2901 295.526 59.1271 294.821 59.1271C294.217 59.1271 293.712 59.2901 293.307 59.6161C292.902 59.9365 292.7 60.3525 292.7 60.8641H290.604C290.604 60.1952 290.787 59.5993 291.153 59.0765C291.519 58.5537 292.026 58.149 292.675 57.8623C293.324 57.57 294.04 57.4238 294.821 57.4238C296.208 57.4238 297.283 57.7302 298.048 58.3429C298.82 58.9557 299.204 59.8129 299.204 60.9146C299.204 61.4712 299.039 61.9827 298.706 62.4493C298.373 62.9159 297.907 63.2841 297.308 63.5539C297.985 63.79 298.501 64.1498 298.855 64.6332C299.216 65.111 299.397 65.7069 299.397 66.4208C299.397 67.5226 298.98 68.3995 298.148 69.0516C297.317 69.698 296.208 70.0213 294.821 70.0213C293.967 70.0213 293.193 69.8667 292.5 69.5575C291.813 69.2483 291.295 68.8267 290.945 68.2927C290.601 67.7587 290.429 67.1459 290.429 66.4546H292.526C292.526 66.9829 292.742 67.4299 293.174 67.7952C293.607 68.155 294.156 68.3349 294.821 68.3349C295.564 68.3349 296.161 68.1578 296.61 67.8036C297.064 67.4495 297.292 66.9886 297.292 66.4208C297.292 65.7294 297.092 65.2291 296.693 64.9199C296.299 64.6051 295.72 64.4477 294.954 64.4477H293.532V62.7613H294.88C296.366 62.7613 297.108 62.1514 297.108 60.9315Z" fill="#222222"/>
<path d="M309.623 57.584H311.727V69.861H309.623V61.117L304.307 69.861H302.203V57.584H304.307V66.3365L309.623 57.584Z" fill="#222222"/>
<path d="M324.715 69.861H322.619V64.4055H317.203V69.861H315.099V57.584H317.203V62.6938H322.619V57.584H324.715V69.861Z" fill="#222222"/>
</g>
<defs>
<clipPath id="clip0_152_92">
<rect width="326" height="73" fill="white"/>
</clipPath>
</defs>
</svg>
