<svg width="318" height="59" viewBox="0 0 318 59" fill="none" xmlns="http://www.w3.org/2000/svg">
<path d="M72.6977 14.7598H85.2383C86.6444 14.7598 88.0885 14.9139 89.4945 15.1837C90.9006 15.492 92.1547 15.9929 93.2567 16.7251C94.3588 17.4573 95.2708 18.4593 95.9549 19.6925C96.6389 20.9257 96.9809 22.4671 96.9809 24.3555C96.9809 26.1667 96.5249 27.7467 95.6508 29.134C94.7768 30.5214 93.5227 31.5619 91.8886 32.3326L99.261 44.279H88.0125L82.4642 33.6814H82.1602V44.202H72.6597V14.7598H72.6977ZM82.1222 27.2072H84.0222C84.3643 27.2072 84.7063 27.1686 85.0863 27.1301C85.4663 27.0916 85.8463 26.976 86.1884 26.7833C86.5304 26.5906 86.7964 26.3594 87.0624 26.0511C87.2904 25.7428 87.4044 25.3189 87.4044 24.7794C87.4044 24.2398 87.2904 23.8545 87.1004 23.5462C86.9104 23.2379 86.6824 23.0067 86.3784 22.8525C86.0744 22.6984 85.7703 22.6213 85.3903 22.5442C85.0483 22.5057 84.7063 22.4671 84.4023 22.4671H82.0841V27.2072H82.1222Z" fill="#D20014"/>
<path d="M98.0449 29.3269C98.0449 26.9761 98.4629 24.8181 99.261 22.9297C100.059 21.0414 101.199 19.4229 102.643 18.0741C104.087 16.7253 105.797 15.7233 107.773 14.9911C109.75 14.2589 111.878 13.9121 114.196 13.9121C116.514 13.9121 118.642 14.2589 120.618 14.9911C122.594 15.7233 124.304 16.7253 125.748 18.0741C127.192 19.4229 128.332 21.0414 129.168 22.9297C130.005 24.8181 130.385 26.9761 130.385 29.3269C130.385 31.6776 129.967 33.8357 129.168 35.8011C128.332 37.7279 127.192 39.385 125.748 40.7723C124.304 42.1597 122.594 43.2002 120.618 43.9709C118.642 44.7031 116.514 45.0885 114.196 45.0885C111.878 45.0885 109.75 44.7031 107.773 43.9709C105.797 43.2387 104.087 42.1597 102.643 40.7723C101.199 39.385 100.059 37.7279 99.261 35.8011C98.4629 33.8357 98.0449 31.6776 98.0449 29.3269ZM108.457 29.3269C108.457 30.2903 108.609 31.1766 108.875 31.9859C109.179 32.7952 109.56 33.4889 110.054 34.0669C110.548 34.645 111.156 35.1074 111.878 35.4157C112.6 35.724 113.36 35.8781 114.196 35.8781C115.032 35.8781 115.792 35.724 116.476 35.4157C117.16 35.1074 117.768 34.645 118.3 34.0669C118.832 33.4889 119.212 32.7952 119.516 31.9859C119.82 31.1766 119.934 30.2903 119.934 29.3269C119.934 28.402 119.782 27.5156 119.516 26.7064C119.212 25.8971 118.832 25.242 118.3 24.7024C117.768 24.1629 117.16 23.739 116.476 23.4307C115.792 23.1224 115.032 22.9683 114.196 22.9683C113.36 22.9683 112.6 23.1224 111.878 23.4307C111.156 23.739 110.548 24.1629 110.054 24.7024C109.56 25.242 109.141 25.8971 108.875 26.7064C108.609 27.5156 108.457 28.3634 108.457 29.3269Z" fill="#D20014"/>
<path d="M131.487 29.4805C131.487 27.1297 131.905 24.9717 132.703 23.0834C133.539 21.1565 134.641 19.538 136.085 18.1506C137.491 16.8019 139.201 15.7228 141.101 14.9906C143.039 14.2584 145.091 13.873 147.295 13.873C149.537 13.873 151.666 14.2584 153.68 14.9906C155.694 15.7228 157.366 16.7248 158.696 17.958L152.692 25.28C152.16 24.5478 151.476 24.0083 150.64 23.6229C149.803 23.2375 148.891 23.0448 147.903 23.0448C147.067 23.0448 146.307 23.199 145.585 23.4687C144.863 23.777 144.255 24.2009 143.723 24.7405C143.191 25.28 142.773 25.9736 142.469 26.7444C142.165 27.5536 142.013 28.4015 142.013 29.4034C142.013 30.3668 142.165 31.2532 142.469 32.0239C142.773 32.7947 143.191 33.4498 143.761 33.9893C144.293 34.5288 144.901 34.9527 145.623 35.261C146.345 35.5693 147.105 35.6849 147.865 35.6849C149.005 35.6849 149.956 35.4537 150.754 34.9913C151.552 34.5288 152.198 33.9508 152.654 33.3342L158.658 40.6177C157.328 41.9664 155.732 43.0069 153.794 43.8162C151.894 44.6255 149.689 45.0109 147.257 45.0109C145.053 45.0109 143.001 44.6255 141.063 43.8933C139.125 43.1611 137.453 42.0821 136.047 40.6947C134.641 39.3074 133.501 37.6889 132.665 35.762C131.867 33.9508 131.487 31.8312 131.487 29.4805Z" fill="#D20014"/>
<path d="M169.413 32.4867H169.337V44.2405H159.836V14.7598H169.299V25.6272H169.375L177.127 14.7598H188.641L177.697 28.2477L189.173 44.2405H177.165L169.413 32.4867Z" fill="#D20014"/>
<path d="M206.122 44.2405H196.28L188.337 14.7598H198.674L201.79 31.3306H201.942L205.324 14.7598H215.547L219.195 31.3306H219.347L222.501 14.7598H232.534L224.439 44.2405H214.597L210.531 27.5926H210.379L206.122 44.2405Z" fill="#D20014"/>
<path d="M231.052 29.3269C231.052 26.9761 231.47 24.8181 232.268 22.9297C233.104 21.0414 234.206 19.4229 235.65 18.0741C237.094 16.7253 238.804 15.7233 240.78 14.9911C242.756 14.2589 244.884 13.9121 247.203 13.9121C249.521 13.9121 251.649 14.2589 253.625 14.9911C255.601 15.7233 257.311 16.7253 258.755 18.0741C260.199 19.4229 261.339 21.0414 262.175 22.9297C263.011 24.8181 263.391 26.9761 263.391 29.3269C263.391 31.6776 262.973 33.8357 262.175 35.8011C261.339 37.7279 260.199 39.385 258.755 40.7723C257.311 42.1597 255.601 43.2002 253.625 43.9709C251.649 44.7031 249.521 45.0885 247.203 45.0885C244.884 45.0885 242.756 44.7031 240.78 43.9709C238.804 43.2387 237.094 42.1597 235.65 40.7723C234.206 39.385 233.066 37.7279 232.268 35.8011C231.47 33.8357 231.052 31.6776 231.052 29.3269ZM241.426 29.3269C241.426 30.2903 241.578 31.1766 241.844 31.9859C242.148 32.7952 242.528 33.4889 243.022 34.0669C243.516 34.645 244.124 35.1074 244.846 35.4157C245.568 35.724 246.329 35.8781 247.165 35.8781C248.001 35.8781 248.761 35.724 249.445 35.4157C250.129 35.1074 250.737 34.645 251.269 34.0669C251.801 33.4889 252.181 32.7952 252.485 31.9859C252.789 31.1766 252.903 30.2903 252.903 29.3269C252.903 28.402 252.751 27.5156 252.485 26.7064C252.181 25.8971 251.801 25.242 251.269 24.7024C250.737 24.1629 250.129 23.739 249.445 23.4307C248.761 23.1224 248.001 22.9683 247.165 22.9683C246.329 22.9683 245.568 23.1224 244.846 23.4307C244.124 23.739 243.516 24.1629 243.022 24.7024C242.528 25.242 242.11 25.8971 241.844 26.7064C241.578 27.5156 241.426 28.3634 241.426 29.3269Z" fill="#D20014"/>
<path d="M264.455 29.3269C264.455 26.9761 264.873 24.8181 265.671 22.9297C266.469 21.0414 267.609 19.4229 269.054 18.0741C270.498 16.7253 272.208 15.7233 274.184 14.9911C276.16 14.2589 278.288 13.9121 280.606 13.9121C282.924 13.9121 285.052 14.2589 287.028 14.9911C289.005 15.7233 290.715 16.7253 292.159 18.0741C293.603 19.4229 294.743 21.0414 295.579 22.9297C296.415 24.8181 296.795 26.9761 296.795 29.3269C296.795 31.6776 296.377 33.8357 295.579 35.8011C294.743 37.7279 293.603 39.385 292.159 40.7723C290.715 42.1597 289.005 43.2002 287.028 43.9709C285.052 44.7031 282.924 45.0885 280.606 45.0885C278.288 45.0885 276.16 44.7031 274.184 43.9709C272.208 43.2387 270.498 42.1597 269.054 40.7723C267.609 39.385 266.469 37.7279 265.671 35.8011C264.873 33.8357 264.455 31.6776 264.455 29.3269ZM274.868 29.3269C274.868 30.2903 275.02 31.1766 275.286 31.9859C275.59 32.7952 275.97 33.4889 276.464 34.0669C276.958 34.645 277.566 35.1074 278.288 35.4157C279.01 35.724 279.77 35.8781 280.606 35.8781C281.442 35.8781 282.202 35.724 282.886 35.4157C283.57 35.1074 284.178 34.645 284.71 34.0669C285.242 33.4889 285.622 32.7952 285.926 31.9859C286.23 31.1766 286.344 30.2903 286.344 29.3269C286.344 28.402 286.192 27.5156 285.926 26.7064C285.622 25.8971 285.242 25.242 284.71 24.7024C284.178 24.1629 283.57 23.739 282.886 23.4307C282.202 23.1224 281.442 22.9683 280.606 22.9683C279.77 22.9683 279.01 23.1224 278.288 23.4307C277.566 23.739 276.958 24.1629 276.464 24.7024C275.97 25.242 275.552 25.8971 275.286 26.7064C274.982 27.5156 274.868 28.3634 274.868 29.3269Z" fill="#D20014"/>
<path d="M298.467 14.7598H308.31V35.7238H317.962V44.279H298.467V14.7598Z" fill="#D20014"/>
<path d="M58.1809 0H0V59H58.1809V0Z" fill="#D20014"/>
<path d="M26.9053 33.1804L20.3689 44.2405H5.81421L23.2571 14.7598H26.9053V33.1804Z" fill="white"/>
<path d="M37.8118 44.2405L31.2755 33.1804V14.7598H34.9237L52.3286 44.2405H37.8118Z" fill="white"/>
<path d="M310.97 18.229C310.97 17.728 311.046 17.2656 311.236 16.8031C311.426 16.3792 311.692 15.9938 311.996 15.6856C312.3 15.3773 312.68 15.1075 313.098 14.9534C313.516 14.7607 313.972 14.6836 314.466 14.6836C314.922 14.6836 315.378 14.7607 315.834 14.9534C316.252 15.146 316.632 15.3773 316.936 15.6856C317.24 15.9938 317.506 16.3792 317.696 16.8031C317.886 17.227 317.962 17.6895 317.962 18.1905C317.962 18.6914 317.886 19.1539 317.696 19.6163C317.506 20.0402 317.24 20.4256 316.936 20.7339C316.632 21.0422 316.252 21.3119 315.834 21.4661C315.416 21.6588 314.96 21.7358 314.466 21.7358C313.972 21.7358 313.516 21.6588 313.098 21.4661C312.68 21.2734 312.3 21.0422 311.996 20.7339C311.692 20.4256 311.426 20.0402 311.236 19.6163C311.084 19.1924 310.97 18.73 310.97 18.229ZM311.54 18.229C311.54 18.6529 311.616 19.0383 311.768 19.4236C311.92 19.7705 312.148 20.1173 312.414 20.3871C312.68 20.6568 312.984 20.8495 313.364 21.0036C313.706 21.1578 314.086 21.2349 314.504 21.2349C314.922 21.2349 315.302 21.1578 315.644 21.0036C315.986 20.8495 316.328 20.6183 316.594 20.3485C316.86 20.0788 317.088 19.7705 317.24 19.3851C317.392 18.9997 317.468 18.6144 317.468 18.1905C317.468 17.7665 317.392 17.3812 317.24 16.9958C317.088 16.6104 316.86 16.3021 316.594 16.0324C316.328 15.7626 316.024 15.5699 315.644 15.4158C315.302 15.2616 314.922 15.1846 314.504 15.1846C314.086 15.1846 313.706 15.2616 313.364 15.4158C313.022 15.5699 312.68 15.8012 312.414 16.0324C312.148 16.3021 311.92 16.6104 311.768 16.9958C311.616 17.3812 311.54 17.8051 311.54 18.229ZM313.174 16.1865H314.656C315.15 16.1865 315.492 16.2636 315.72 16.4563C315.948 16.649 316.062 16.9573 316.062 17.3426C316.062 17.728 315.948 17.9592 315.758 18.1519C315.568 18.3061 315.302 18.4217 314.998 18.4602L316.176 20.2714H315.568L314.466 18.5373H313.744V20.2714H313.174V16.1865ZM313.744 17.9978H314.428C314.58 17.9978 314.694 17.9978 314.846 17.9978C314.96 17.9978 315.112 17.9592 315.188 17.9207C315.264 17.8822 315.378 17.8051 315.416 17.728C315.492 17.6509 315.492 17.4968 315.492 17.3426C315.492 17.1885 315.454 17.0729 315.416 16.9958C315.378 16.9187 315.302 16.8417 315.188 16.8031C315.112 16.7646 314.998 16.7261 314.884 16.7261C314.77 16.7261 314.656 16.7261 314.58 16.7261H313.706V17.9978H313.744Z" fill="#D20014"/>
</svg>
