<svg width="340" height="53" viewBox="0 0 340 53" fill="none" xmlns="http://www.w3.org/2000/svg">
<path d="M46.804 10.207C48.0451 11.8203 49.0959 13.5729 49.9349 15.4297L26.1345 33.0678L16.1877 26.7993V19.258L26.1345 25.5265L46.804 10.207Z" fill="#21A038"/>
<path d="M6.03625 26.2667C6.03625 25.9283 6.04446 25.5921 6.06087 25.2579L0.0328298 24.9609C0.0123123 25.3941 7.2846e-06 25.8314 7.2846e-06 26.2728C-0.00255748 29.7213 0.672154 33.1363 1.98545 36.3219C3.29874 39.5077 5.22476 42.4013 7.65303 44.8369L11.9289 40.5404C10.0597 38.6688 8.57684 36.4443 7.56558 33.9947C6.55433 31.5451 6.0346 28.9188 6.03625 26.2667Z" fill="url(#paint0_linear_152_224)"/>
<path d="M26.129 6.06625C26.4655 6.06625 26.7998 6.07863 27.1322 6.09513L27.4338 0.0329115C27.0017 0.0122848 26.5667 0.00197261 26.129 0.00197261C22.6971 -0.00223476 19.2984 0.675094 16.1278 1.99506C12.9571 3.31504 10.0771 5.25166 7.65295 7.69372L11.9288 11.9923C13.7905 10.1126 16.0035 8.6213 18.4405 7.60429C20.8775 6.58729 23.4903 6.06458 26.129 6.06625Z" fill="url(#paint1_linear_152_224)"/>
<path d="M26.129 46.4669C25.7926 46.4669 25.4581 46.4669 25.1238 46.4401L24.8221 52.5002C25.2557 52.5222 25.6914 52.5333 26.129 52.5333C29.5595 52.5369 32.9566 51.8591 36.1255 50.5388C39.2945 49.2184 42.1727 47.2815 44.5949 44.8395L40.3273 40.543C38.4652 42.4217 36.2525 43.9122 33.816 44.9288C31.3794 45.9454 28.7671 46.4682 26.129 46.4669Z" fill="url(#paint2_linear_152_224)"/>
<path d="M37.455 9.59151L42.535 5.82711C37.8918 2.04717 32.0957 -0.0104927 26.121 4.02376e-05V6.06638C30.1668 6.06134 34.1187 7.29052 37.455 9.59151Z" fill="url(#paint3_linear_152_224)"/>
<path d="M52.2562 26.2656C52.2594 24.6875 52.1222 23.1121 51.8458 21.5586L46.222 25.7252C46.222 25.9048 46.222 26.0842 46.222 26.2656C46.2235 29.088 45.635 31.8791 44.4948 34.4581C43.3545 37.0372 41.6879 39.3465 39.603 41.2365L43.6594 45.7436C46.3698 43.2836 48.5358 40.2785 50.0167 36.9231C51.4978 33.5676 52.2607 29.9366 52.2562 26.2656Z" fill="#21A038"/>
<path d="M26.1292 46.4667C23.3216 46.4677 20.5451 45.8759 17.9794 44.7296C15.4138 43.5834 13.1163 41.9081 11.2355 39.8125L6.75452 43.8884C9.20114 46.6137 12.1902 48.7915 15.528 50.2808C18.8657 51.7699 22.4774 52.5373 26.1292 52.533V46.4667Z" fill="url(#paint4_linear_152_224)"/>
<path d="M12.6552 11.296L8.60095 6.78906C5.88971 9.24855 3.72297 12.2535 2.24125 15.609C0.759547 18.9645 -0.00403964 22.5956 1.60717e-05 26.2669H6.03626C6.03502 23.4447 6.62359 20.6536 7.7638 18.0746C8.90403 15.4956 10.5705 13.1862 12.6552 11.296Z" fill="url(#paint5_linear_152_224)"/>
<path d="M150.782 15.0213L158.257 9.54688H133.237V42.4435H158.257V36.9691H140.376V28.5425H155.63V23.0681H140.376V15.0213H150.782Z" fill="#21A038"/>
<path d="M116.402 22.3615H107.715V15.0184H121.579L129.05 9.52734H100.58V42.424H115.483C123.838 42.424 128.633 38.66 128.633 32.0957C128.633 25.8159 124.29 22.3615 116.402 22.3615ZM115.161 36.9478H107.715V27.8326H115.161C119.681 27.8326 121.799 29.3601 121.799 32.3903C121.799 35.4203 119.545 36.9478 115.161 36.9478Z" fill="#21A038"/>
<path d="M176.649 9.54102H163.03V42.4375H170.168V33.1185H176.649C185.339 33.1185 190.714 28.5738 190.714 21.3122C190.714 14.0508 185.339 9.54102 176.649 9.54102ZM176.499 27.6399H170.168V15.0196H176.499C181.069 15.0196 183.592 17.262 183.592 21.3323C183.592 25.4025 181.069 27.6399 176.499 27.6399Z" fill="#21A038"/>
<path d="M89.8674 34.6742C88.0233 35.6668 85.9573 36.1807 83.8604 36.1685C77.5844 36.1685 73.0314 31.7151 73.0314 25.5827C73.0314 19.4501 77.5844 14.987 83.8604 14.987C86.1237 14.9488 88.34 15.6309 90.1856 16.9339L95.179 13.2786L94.8413 13.0401C91.9285 10.4947 88.0364 9.14648 83.5815 9.14648C78.7494 9.14648 74.368 10.7623 71.2396 13.7021C69.6578 15.2157 68.4069 17.0371 67.5646 19.0527C66.7223 21.0683 66.3067 23.2348 66.3441 25.4171C66.3106 27.6215 66.7243 29.8101 67.5603 31.8522C68.3964 33.8943 69.6377 35.7479 71.2103 37.3026C74.3532 40.3591 78.725 42.043 83.5227 42.043C88.5358 42.043 92.9174 40.3054 95.8841 37.142L91.4144 33.8323L89.8674 34.6742Z" fill="#21A038"/>
<path d="M219.02 22.3615H210.337V15.0184H228.996V9.52734H203.197V42.424H218.081C226.435 42.424 231.231 38.66 231.231 32.0957C231.25 25.8159 226.908 22.3615 219.02 22.3615ZM217.78 36.9478H210.337V27.8326H217.78C222.298 27.8326 224.416 29.3601 224.416 32.3903C224.416 35.4203 222.182 36.9478 217.78 36.9478Z" fill="#21A038"/>
<path d="M312.39 42.3771H305.153V9.48047H312.39V23.2972H316.329L326.967 9.48047H335.169L322.551 25.1298L337.202 42.3771H327.6L316.831 29.4391H312.39V42.3771Z" fill="#21A038"/>
<path d="M257.524 36.1256H242.214L239.619 42.5137H231.917L246.276 9.61719H253.977L268.103 42.5137H260.119L257.524 36.1256ZM255.126 30.165L249.914 17.3887L244.674 30.165H255.126Z" fill="#21A038"/>
<path d="M277.846 9.61719V23.3542H292.822V9.61719H300.285V42.5137H292.822V29.5514H277.846V42.5137H270.384V9.61719H277.846Z" fill="#21A038"/>
<defs>
<linearGradient id="paint0_linear_152_224" x1="8.87382" y1="44.08" x2="2.21664" y2="24.9374" gradientUnits="userSpaceOnUse">
<stop offset="0.14" stop-color="#F1E813"/>
<stop offset="0.3" stop-color="#E6E418"/>
<stop offset="0.58" stop-color="#C9DA26"/>
<stop offset="0.89" stop-color="#A2CC39"/>
</linearGradient>
<linearGradient id="paint1_linear_152_224" x1="9.37641" y1="8.76631" x2="26.3856" y2="2.3187" gradientUnits="userSpaceOnUse">
<stop offset="0.06" stop-color="#0FA7DF"/>
<stop offset="0.54" stop-color="#0098F8"/>
<stop offset="0.92" stop-color="#0290EA"/>
</linearGradient>
<linearGradient id="paint2_linear_152_224" x1="24.4242" y1="48.872" x2="43.6424" y2="44.5534" gradientUnits="userSpaceOnUse">
<stop offset="0.12" stop-color="#A2CC39"/>
<stop offset="0.28" stop-color="#86C239"/>
<stop offset="0.87" stop-color="#219F38"/>
</linearGradient>
<linearGradient id="paint3_linear_152_224" x1="24.8654" y1="2.03178" x2="41.3026" y2="7.07738" gradientUnits="userSpaceOnUse">
<stop offset="0.06" stop-color="#0290EA"/>
<stop offset="0.79" stop-color="#0C89CA"/>
</linearGradient>
<linearGradient id="paint4_linear_152_224" x1="8.2687" y1="43.1499" x2="26.1668" y2="49.8036" gradientUnits="userSpaceOnUse">
<stop offset="0.13" stop-color="#F1E813"/>
<stop offset="0.3" stop-color="#EAE616"/>
<stop offset="0.53" stop-color="#D8DF1F"/>
<stop offset="0.8" stop-color="#BAD52D"/>
<stop offset="0.98" stop-color="#A2CC39"/>
</linearGradient>
<linearGradient id="paint5_linear_152_224" x1="2.24873" y1="27.0012" x2="9.49041" y2="8.26285" gradientUnits="userSpaceOnUse">
<stop offset="0.07" stop-color="#A2CC39"/>
<stop offset="0.26" stop-color="#81C45E"/>
<stop offset="0.92" stop-color="#0FA7DF"/>
</linearGradient>
</defs>
</svg>
