<svg width="168" height="60" viewBox="0 0 168 60" fill="none" xmlns="http://www.w3.org/2000/svg">
<path fill-rule="evenodd" clip-rule="evenodd" d="M11.4142 0L8.5589 7.78747H48.1275L50.9829 0H11.4142ZM7.13034 11.6794L4.275 19.4651H43.8436L46.699 11.6794H7.13034ZM2.85534 23.3589L0 31.1446H39.5686L42.4222 23.3589H2.85534Z" fill="#009FDF"/>
<mask id="mask0_152_318" style="mask-type:alpha" maskUnits="userSpaceOnUse" x="59" y="11" width="109" height="49">
<path d="M59.3655 59.5313H167.68V11.8281H59.3655V59.5313Z" fill="white"/>
</mask>
<g mask="url(#mask0_152_318)">
<path fill-rule="evenodd" clip-rule="evenodd" d="M84.1203 34.1112V34.2755C85.9286 34.9363 87.656 36.0919 88.561 36.834C91.3571 39.1452 92.5915 42.1985 92.5915 46.16C92.5915 52.6819 89.1368 57.3855 83.4618 58.8715C81.7344 59.3663 79.9261 59.5324 76.5524 59.5324H59.3655V11.8281H74.5804C77.7058 11.8281 79.8434 11.9924 81.7344 12.4872C87.2457 13.9732 90.8641 17.7704 90.8641 23.7939C90.8641 27.0133 89.7126 29.738 87.8215 31.5526C86.9992 32.3778 85.8477 33.3691 84.1203 34.1112ZM68.9054 39.1452V51.6906H75.4855C77.4575 51.6906 79.2676 51.5263 80.5847 50.2876C81.9 49.049 82.4758 47.4817 82.4758 45.4179C82.4758 43.8506 82.0637 42.3646 81.2414 41.2921C79.8434 39.5587 78.116 39.1452 75.1562 39.1452H68.9054ZM68.8226 30.8918H74.1684C75.8129 30.8918 76.6352 30.8918 77.4575 30.6444C79.6796 29.9835 81.0777 28.0046 81.0777 25.2799C81.0777 22.0623 79.5969 20.6576 77.4575 19.9985C76.5525 19.7511 75.6492 19.6681 73.8391 19.6681H68.8226V30.8918ZM106.901 59.5324V19.8324H93.1672V11.8281H131.329L128.615 19.8324H116.441V59.5324H106.901ZM134.289 59.5324V11.8281H165.213L162.5 19.8324H143.748V30.397H151.396C157.564 30.397 160.773 31.883 162.993 33.7807C164.72 35.2668 167.68 38.5674 167.68 45.0893C167.68 51.5263 164.637 55.0743 162.088 56.8908C159.128 58.9528 156.003 59.5324 149.669 59.5324H134.289ZM143.748 51.5263H150.903C153.617 51.5263 155.261 50.8654 156.413 49.3794C156.989 48.6373 157.811 47.3156 157.811 44.8401C157.811 42.3646 156.989 40.6312 155.344 39.3926C154.358 38.6505 153.041 38.2388 150.821 38.2388H143.748V51.5263Z" fill="#0A2973"/>
</g>
</svg>
