<svg width="41" height="41" viewBox="0 0 41 41" fill="none" xmlns="http://www.w3.org/2000/svg">
<path d="M4.32405 2.22958L5.83298 0.720651C6.79385 -0.240216 8.35172 -0.240218 9.31259 0.72065L15.6748 7.08286C16.6357 8.04373 16.6357 9.6016 15.6748 10.5625L11.2647 14.9726C10.5293 15.708 10.347 16.8315 10.8121 17.7617C13.5007 23.139 17.861 27.4993 23.2383 30.1879C24.1685 30.653 25.292 30.4707 26.0274 29.7353L30.4375 25.3252C31.3984 24.3643 32.9563 24.3643 33.9171 25.3252L40.2793 31.6874C41.2402 32.6483 41.2402 34.2062 40.2794 35.167L38.7704 36.6759C33.5755 41.8708 25.3513 42.4553 19.474 38.0473L16.5007 35.8174C12.2108 32.6 8.40004 28.7892 5.18263 24.4993L2.9527 21.526C-1.4553 15.6487 -0.870831 7.42447 4.32405 2.22958Z" fill="#2861A4"/>
</svg>
